<svg xmlns="http://www.w3.org/2000/svg" width="800" height="800"><path d="M357,332L180,324L275,453Z" fill="#fbe6da" stroke="#fbe6da" stroke-width="1.51"/><path d="M180,324L174,495L275,453Z" fill="#f7dcd0" stroke="#f7dcd0" stroke-width="1.51"/><path d="M357,332L291,176L180,324Z" fill="#fdddcb" stroke="#fdddcb" stroke-width="1.51"/><path d="M357,332L457,170L291,176Z" fill="#fbddcf" stroke="#fbddcf" stroke-width="1.51"/><path d="M473,518L516,286L357,332Z" fill="#f1f2f2" stroke="#f1f2f2" stroke-width="1.51"/><path d="M275,453L473,518L357,332Z" fill="#f3f1f0" stroke="#f3f1f0" stroke-width="1.51"/><path d="M451,625L473,518L275,453Z" fill="#e5eef4" stroke="#e5eef4" stroke-width="1.51"/><path d="M291,176L170,114L180,324Z" fill="#fbc4a9" stroke="#fbc4a9" stroke-width="1.51"/><path d="M180,324L-45,454L174,495Z" fill="#f4c5b4" stroke="#f4c5b4" stroke-width="1.51"/><path d="M274,15L170,114L291,176Z" fill="#f6b598" stroke="#f6b598" stroke-width="1.51"/><path d="M516,286L457,170L357,332Z" fill="#f5e6dd" stroke="#f5e6dd" stroke-width="1.51"/><path d="M170,114L19,185L180,324Z" fill="#f6b394" stroke="#f6b394" stroke-width="1.51"/><path d="M19,185L-41,301L180,324Z" fill="#f3ad94" stroke="#f3ad94" stroke-width="1.51"/><path d="M279,687L451,625L275,453Z" fill="#dbe1e5" stroke="#dbe1e5" stroke-width="1.51"/><path d="M-41,301L-45,454L180,324Z" fill="#f1b19f" stroke="#f1b19f" stroke-width="1.51"/><path d="M174,495L279,687L275,453Z" fill="#e6dad5" stroke="#e6dad5" stroke-width="1.51"/><path d="M-29,621L188,677L174,495Z" fill="#dab9b0" stroke="#dab9b0" stroke-width="1.51"/><path d="M188,677L279,687L174,495Z" fill="#d7ccc9" stroke="#d7ccc9" stroke-width="1.51"/><path d="M457,170L274,15L291,176Z" fill="#f9c5af" stroke="#f9c5af" stroke-width="1.51"/><path d="M170,114L-17,-41L19,185Z" fill="#e8876a" stroke="#e8876a" stroke-width="1.51"/><path d="M457,170L508,-60L274,15Z" fill="#f1b7a7" stroke="#f1b7a7" stroke-width="1.51"/><path d="M516,286L610,167L457,170Z" fill="#ead5cc" stroke="#ead5cc" stroke-width="1.51"/><path d="M644,521L639,281L516,286Z" fill="#d7e2e9" stroke="#d7e2e9" stroke-width="1.51"/><path d="M644,521L516,286L473,518Z" fill="#dceaf2" stroke="#dceaf2" stroke-width="1.51"/><path d="M274,15L181,-12L170,114Z" fill="#ef9d82" stroke="#ef9d82" stroke-width="1.51"/><path d="M639,281L610,167L516,286Z" fill="#ddd6d3" stroke="#ddd6d3" stroke-width="1.51"/><path d="M-45,454L-29,621L174,495Z" fill="#e3ada4" stroke="#e3ada4" stroke-width="1.51"/><path d="M622,634L644,521L473,518Z" fill="#c1dceb" stroke="#c1dceb" stroke-width="1.51"/><path d="M188,677L170,778L279,687Z" fill="#c3bdc0" stroke="#c3bdc0" stroke-width="1.51"/><path d="M279,687L477,815L451,625Z" fill="#bcd6e7" stroke="#bcd6e7" stroke-width="1.51"/><path d="M451,625L622,634L473,518Z" fill="#c7dfed" stroke="#c7dfed" stroke-width="1.51"/><path d="M-29,621L170,778L188,677Z" fill="#c7aca9" stroke="#c7aca9" stroke-width="1.51"/><path d="M-219,309L-157,460L-41,301Z" fill="#df8c83" stroke="#df8c83" stroke-width="1.51"/><path d="M-41,301L-157,460L-45,454Z" fill="#e59c93" stroke="#e59c93" stroke-width="1.51"/><path d="M-45,454L-157,460L-29,621Z" fill="#d99691" stroke="#d99691" stroke-width="1.51"/><path d="M170,778L297,805L279,687Z" fill="#b8bcc6" stroke="#b8bcc6" stroke-width="1.51"/><path d="M477,815L622,634L451,625Z" fill="#afd1e5" stroke="#afd1e5" stroke-width="1.51"/><path d="M274,15L295,-164L181,-12Z" fill="#e7917d" stroke="#e7917d" stroke-width="1.51"/><path d="M610,167L508,-60L457,170Z" fill="#e7bcb0" stroke="#e7bcb0" stroke-width="1.51"/><path d="M-222,187L-219,309L-41,301Z" fill="#d77f73" stroke="#d77f73" stroke-width="1.51"/><path d="M-222,187L-41,301L19,185Z" fill="#e28672" stroke="#e28672" stroke-width="1.51"/><path d="M181,-12L-17,-41L170,114Z" fill="#e68468" stroke="#e68468" stroke-width="1.51"/><path d="M-6,-149L-17,-41L181,-12Z" fill="#d4614f" stroke="#d4614f" stroke-width="1.51"/><path d="M297,805L477,815L279,687Z" fill="#b0c5d8" stroke="#b0c5d8" stroke-width="1.51"/><path d="M-157,460L-164,633L-29,621Z" fill="#cb8988" stroke="#cb8988" stroke-width="1.51"/><path d="M-29,621L-19,841L170,778Z" fill="#b69295" stroke="#b69295" stroke-width="1.51"/><path d="M-219,309L-164,633L-157,460Z" fill="#ca8786" stroke="#ca8786" stroke-width="1.51"/><path d="M-164,-26L-222,187L19,185Z" fill="#d56654" stroke="#d56654" stroke-width="1.51"/><path d="M508,-60L295,-164L274,15Z" fill="#e79a8e" stroke="#e79a8e" stroke-width="1.51"/><path d="M295,-164L179,-183L181,-12Z" fill="#dd7d6b" stroke="#dd7d6b" stroke-width="1.51"/><path d="M806,629L809,451L644,521Z" fill="#9dc4df" stroke="#9dc4df" stroke-width="1.51"/><path d="M644,521L809,451L639,281Z" fill="#bcd7e7" stroke="#bcd7e7" stroke-width="1.51"/><path d="M639,281L800,126L610,167Z" fill="#cabfbe" stroke="#cabfbe" stroke-width="1.51"/><path d="M610,167L651,-43L508,-60Z" fill="#d5a49d" stroke="#d5a49d" stroke-width="1.51"/><path d="M806,629L644,521L622,634Z" fill="#9ecae1" stroke="#9ecae1" stroke-width="1.51"/><path d="M800,126L651,-43L610,167Z" fill="#c6a7a4" stroke="#c6a7a4" stroke-width="1.51"/><path d="M508,-60L484,-174L295,-164Z" fill="#dd908a" stroke="#dd908a" stroke-width="1.51"/><path d="M170,778L122,961L297,805Z" fill="#aaa1b0" stroke="#aaa1b0" stroke-width="1.51"/><path d="M297,805L288,983L477,815Z" fill="#a2b3cf" stroke="#a2b3cf" stroke-width="1.51"/><path d="M-164,633L-19,841L-29,621Z" fill="#b78386" stroke="#b78386" stroke-width="1.51"/><path d="M809,451L832,354L639,281Z" fill="#b2c8db" stroke="#b2c8db" stroke-width="1.51"/><path d="M666,-163L484,-174L508,-60Z" fill="#cd8887" stroke="#cd8887" stroke-width="1.51"/><path d="M295,-164L484,-174L179,-183Z" fill="#d3837b" stroke="#d3837b" stroke-width="1.51"/><path d="M179,-183L-6,-149L181,-12Z" fill="#d66855" stroke="#d66855" stroke-width="1.51"/><path d="M-17,-41L-164,-26L19,185Z" fill="#d5604e" stroke="#d5604e" stroke-width="1.51"/><path d="M-6,-149L-164,-26L-17,-41Z" fill="#c5433c" stroke="#c5433c" stroke-width="1.51"/><path d="M832,354L800,126L639,281Z" fill="#b8bdc7" stroke="#b8bdc7" stroke-width="1.51"/><path d="M477,815L676,779L622,634Z" fill="#92c0dc" stroke="#92c0dc" stroke-width="1.51"/><path d="M1014,507L976,283L832,354Z" fill="#99a9cd" stroke="#99a9cd" stroke-width="1.51"/><path d="M676,779L806,629L622,634Z" fill="#87bcd9" stroke="#87bcd9" stroke-width="1.51"/><path d="M-19,841L122,961L170,778Z" fill="#a78997" stroke="#a78997" stroke-width="1.51"/><path d="M477,815L628,1009L676,779Z" fill="#7ca9d0" stroke="#7ca9d0" stroke-width="1.51"/><path d="M122,961L288,983L297,805Z" fill="#a39cb5" stroke="#a39cb5" stroke-width="1.51"/><path d="M122,961L-198,995L288,983Z" fill="#966c81" stroke="#966c81" stroke-width="1.51"/><path d="M-19,841L-23,947L122,961Z" fill="#9d7085" stroke="#9d7085" stroke-width="1.51"/><path d="M-197,833L-23,947L-19,841Z" fill="#986177" stroke="#986177" stroke-width="1.51"/><path d="M651,-43L666,-163L508,-60Z" fill="#c78a8a" stroke="#c78a8a" stroke-width="1.51"/><path d="M861,-42L666,-163L651,-43Z" fill="#b07b82" stroke="#b07b82" stroke-width="1.51"/><path d="M-219,309L-197,833L-164,633Z" fill="#b37b80" stroke="#b37b80" stroke-width="1.51"/><path d="M-164,633L-197,833L-19,841Z" fill="#a26b78" stroke="#a26b78" stroke-width="1.51"/><path d="M288,983L511,994L477,815Z" fill="#95abd2" stroke="#95abd2" stroke-width="1.51"/><path d="M676,779L786,845L806,629Z" fill="#64a5cd" stroke="#64a5cd" stroke-width="1.51"/><path d="M-6,-149L-193,-160L-164,-26Z" fill="#b82830" stroke="#b82830" stroke-width="1.51"/><path d="M-164,-26L-193,-160L-222,187Z" fill="#b43d39" stroke="#b43d39" stroke-width="1.51"/><path d="M179,-183L-193,-160L-6,-149Z" fill="#bc3d3a" stroke="#bc3d3a" stroke-width="1.51"/><path d="M1014,507L832,354L809,451Z" fill="#98b2d5" stroke="#98b2d5" stroke-width="1.51"/><path d="M628,1009L786,845L676,779Z" fill="#5f99c7" stroke="#5f99c7" stroke-width="1.51"/><path d="M800,126L861,-42L651,-43Z" fill="#af878e" stroke="#af878e" stroke-width="1.51"/><path d="M832,354L976,283L800,126Z" fill="#a7a8be" stroke="#a7a8be" stroke-width="1.51"/><path d="M1014,507L809,451L806,629Z" fill="#8baed4" stroke="#8baed4" stroke-width="1.51"/><path d="M948,11L861,-42L800,126Z" fill="#a27989" stroke="#a27989" stroke-width="1.51"/><path d="M511,994L628,1009L477,815Z" fill="#83a2cd" stroke="#83a2cd" stroke-width="1.51"/><path d="M288,983L628,1009L511,994Z" fill="#8599be" stroke="#8599be" stroke-width="1.51"/><path d="M956,839L964,654L806,629Z" fill="#5992c4" stroke="#5992c4" stroke-width="1.51"/><path d="M964,654L1014,507L806,629Z" fill="#769dcb" stroke="#769dcb" stroke-width="1.51"/><path d="M1013,169L948,11L800,126Z" fill="#a28194" stroke="#a28194" stroke-width="1.51"/><path d="M861,-42L852,-207L666,-163Z" fill="#9c6574" stroke="#9c6574" stroke-width="1.51"/><path d="M1013,169L800,126L976,283Z" fill="#a292a9" stroke="#a292a9" stroke-width="1.51"/><path d="M1014,507L1013,169L976,283Z" fill="#9395b1" stroke="#9395b1" stroke-width="1.51"/><path d="M-197,833L-198,995L-23,947Z" fill="#8c4d6b" stroke="#8c4d6b" stroke-width="1.51"/><path d="M-23,947L-198,995L122,961Z" fill="#905871" stroke="#905871" stroke-width="1.51"/><path d="M288,983L-198,995L628,1009Z" fill="#978ca3" stroke="#978ca3" stroke-width="1.51"/><path d="M-219,309L-198,995L-197,833Z" fill="#986a77" stroke="#986a77" stroke-width="1.51"/><path d="M1000,-151L852,-207L861,-42Z" fill="#8f516d" stroke="#8f516d" stroke-width="1.51"/><path d="M666,-163L852,-207L484,-174Z" fill="#a9757d" stroke="#a9757d" stroke-width="1.51"/><path d="M484,-174L852,-207L179,-183Z" fill="#c38485" stroke="#c38485" stroke-width="1.51"/><path d="M628,1009L848,965L786,845Z" fill="#4784bc" stroke="#4784bc" stroke-width="1.51"/><path d="M786,845L956,839L806,629Z" fill="#4a91c2" stroke="#4a91c2" stroke-width="1.51"/><path d="M848,965L956,839L786,845Z" fill="#347bb7" stroke="#347bb7" stroke-width="1.51"/><path d="M964,654L1011,994L1014,507Z" fill="#4c7eaf" stroke="#4c7eaf" stroke-width="1.51"/><path d="M948,11L1000,-151L861,-42Z" fill="#935a75" stroke="#935a75" stroke-width="1.51"/><path d="M1013,169L1000,-151L948,11Z" fill="#915d73" stroke="#915d73" stroke-width="1.51"/><path d="M956,839L1011,994L964,654Z" fill="#2d6faa" stroke="#2d6faa" stroke-width="1.51"/><path d="M848,965L1011,994L956,839Z" fill="#2267ad" stroke="#2267ad" stroke-width="1.51"/><path d="M628,1009L1011,994L848,965Z" fill="#2c6ca6" stroke="#2c6ca6" stroke-width="1.51"/></svg>