<svg xmlns="http://www.w3.org/2000/svg" width="800" height="800"><path d="M357,332L180,324L275,453Z" fill="#7fcdb5" stroke="#7fcdb5" stroke-width="1.51"/><path d="M180,324L174,495L275,453Z" fill="#82cdb5" stroke="#82cdb5" stroke-width="1.51"/><path d="M357,332L291,176L180,324Z" fill="#8cd2bf" stroke="#8cd2bf" stroke-width="1.51"/><path d="M357,332L457,170L291,176Z" fill="#86d0ba" stroke="#86d0ba" stroke-width="1.51"/><path d="M473,518L516,286L357,332Z" fill="#65c1a0" stroke="#65c1a0" stroke-width="1.51"/><path d="M275,453L473,518L357,332Z" fill="#68c2a3" stroke="#68c2a3" stroke-width="1.51"/><path d="M451,625L473,518L275,453Z" fill="#59ba92" stroke="#59ba92" stroke-width="1.51"/><path d="M291,176L170,114L180,324Z" fill="#a1dbcd" stroke="#a1dbcd" stroke-width="1.51"/><path d="M180,324L-45,454L174,495Z" fill="#92d3be" stroke="#92d3be" stroke-width="1.51"/><path d="M274,15L170,114L291,176Z" fill="#abdfd2" stroke="#abdfd2" stroke-width="1.51"/><path d="M516,286L457,170L357,332Z" fill="#77c9ad" stroke="#77c9ad" stroke-width="1.51"/><path d="M170,114L19,185L180,324Z" fill="#aee0d4" stroke="#aee0d4" stroke-width="1.51"/><path d="M19,185L-41,301L180,324Z" fill="#afe0d4" stroke="#afe0d4" stroke-width="1.51"/><path d="M279,687L451,625L275,453Z" fill="#5ebb91" stroke="#5ebb91" stroke-width="1.51"/><path d="M-41,301L-45,454L180,324Z" fill="#a3dbcb" stroke="#a3dbcb" stroke-width="1.51"/><path d="M174,495L279,687L275,453Z" fill="#71c4a1" stroke="#71c4a1" stroke-width="1.51"/><path d="M-29,621L188,677L174,495Z" fill="#82c7a4" stroke="#82c7a4" stroke-width="1.51"/><path d="M188,677L279,687L174,495Z" fill="#6fbf99" stroke="#6fbf99" stroke-width="1.51"/><path d="M457,170L274,15L291,176Z" fill="#9bd8c6" stroke="#9bd8c6" stroke-width="1.51"/><path d="M170,114L-17,-41L19,185Z" fill="#c9ebe4" stroke="#c9ebe4" stroke-width="1.51"/><path d="M457,170L508,-60L274,15Z" fill="#9bd7c4" stroke="#9bd7c4" stroke-width="1.51"/><path d="M516,286L610,167L457,170Z" fill="#78c7a6" stroke="#78c7a6" stroke-width="1.51"/><path d="M644,521L639,281L516,286Z" fill="#59b78c" stroke="#59b78c" stroke-width="1.51"/><path d="M644,521L516,286L473,518Z" fill="#53b78a" stroke="#53b78a" stroke-width="1.51"/><path d="M274,15L181,-12L170,114Z" fill="#b8e4db" stroke="#b8e4db" stroke-width="1.51"/><path d="M639,281L610,167L516,286Z" fill="#6dc09a" stroke="#6dc09a" stroke-width="1.51"/><path d="M-45,454L-29,621L174,495Z" fill="#92d1b4" stroke="#92d1b4" stroke-width="1.51"/><path d="M622,634L644,521L473,518Z" fill="#42ad76" stroke="#42ad76" stroke-width="1.51"/><path d="M188,677L170,778L279,687Z" fill="#68b58a" stroke="#68b58a" stroke-width="1.51"/><path d="M279,687L477,815L451,625Z" fill="#4aa977" stroke="#4aa977" stroke-width="1.51"/><path d="M451,625L622,634L473,518Z" fill="#46ae79" stroke="#46ae79" stroke-width="1.51"/><path d="M-29,621L170,778L188,677Z" fill="#7abd96" stroke="#7abd96" stroke-width="1.51"/><path d="M-219,309L-157,460L-41,301Z" fill="#b0dfd3" stroke="#b0dfd3" stroke-width="1.51"/><path d="M-41,301L-157,460L-45,454Z" fill="#a6dbcc" stroke="#a6dbcc" stroke-width="1.51"/><path d="M-45,454L-157,460L-29,621Z" fill="#9bd5bc" stroke="#9bd5bc" stroke-width="1.51"/><path d="M170,778L297,805L279,687Z" fill="#5fae82" stroke="#5fae82" stroke-width="1.51"/><path d="M477,815L622,634L451,625Z" fill="#3da46b" stroke="#3da46b" stroke-width="1.51"/><path d="M274,15L295,-164L181,-12Z" fill="#bae4dc" stroke="#bae4dc" stroke-width="1.51"/><path d="M610,167L508,-60L457,170Z" fill="#8bceb1" stroke="#8bceb1" stroke-width="1.51"/><path d="M-222,187L-219,309L-41,301Z" fill="#bee6dd" stroke="#bee6dd" stroke-width="1.51"/><path d="M-222,187L-41,301L19,185Z" fill="#bfe7e0" stroke="#bfe7e0" stroke-width="1.51"/><path d="M181,-12L-17,-41L170,114Z" fill="#c9eae4" stroke="#c9eae4" stroke-width="1.51"/><path d="M-6,-149L-17,-41L181,-12Z" fill="#d7f0ee" stroke="#d7f0ee" stroke-width="1.51"/><path d="M297,805L477,815L279,687Z" fill="#4ea676" stroke="#4ea676" stroke-width="1.51"/><path d="M-157,460L-164,633L-29,621Z" fill="#98d2b5" stroke="#98d2b5" stroke-width="1.51"/><path d="M-29,621L-19,841L170,778Z" fill="#7fbb93" stroke="#7fbb93" stroke-width="1.51"/><path d="M-219,309L-164,633L-157,460Z" fill="#a6d9c5" stroke="#a6d9c5" stroke-width="1.51"/><path d="M-164,-26L-222,187L19,185Z" fill="#d2eeeb" stroke="#d2eeeb" stroke-width="1.51"/><path d="M508,-60L295,-164L274,15Z" fill="#abddd0" stroke="#abddd0" stroke-width="1.51"/><path d="M295,-164L179,-183L181,-12Z" fill="#c3e8e2" stroke="#c3e8e2" stroke-width="1.51"/><path d="M806,629L809,451L644,521Z" fill="#369d60" stroke="#369d60" stroke-width="1.51"/><path d="M644,521L809,451L639,281Z" fill="#49a977" stroke="#49a977" stroke-width="1.51"/><path d="M639,281L800,126L610,167Z" fill="#6eb991" stroke="#6eb991" stroke-width="1.51"/><path d="M610,167L651,-43L508,-60Z" fill="#8cccac" stroke="#8cccac" stroke-width="1.51"/><path d="M806,629L644,521L622,634Z" fill="#359e60" stroke="#359e60" stroke-width="1.51"/><path d="M800,126L651,-43L610,167Z" fill="#7fbf99" stroke="#7fbf99" stroke-width="1.51"/><path d="M508,-60L484,-174L295,-164Z" fill="#a7dbca" stroke="#a7dbca" stroke-width="1.51"/><path d="M170,778L122,961L297,805Z" fill="#62a97f" stroke="#62a97f" stroke-width="1.51"/><path d="M297,805L288,983L477,815Z" fill="#479d6e" stroke="#479d6e" stroke-width="1.51"/><path d="M-164,633L-19,841L-29,621Z" fill="#8bc3a0" stroke="#8bc3a0" stroke-width="1.51"/><path d="M809,451L832,354L639,281Z" fill="#4da776" stroke="#4da776" stroke-width="1.51"/><path d="M666,-163L484,-174L508,-60Z" fill="#9bd4b8" stroke="#9bd4b8" stroke-width="1.51"/><path d="M295,-164L484,-174L179,-183Z" fill="#b7e3d8" stroke="#b7e3d8" stroke-width="1.51"/><path d="M179,-183L-6,-149L181,-12Z" fill="#d1eeeb" stroke="#d1eeeb" stroke-width="1.51"/><path d="M-17,-41L-164,-26L19,185Z" fill="#d7f0ee" stroke="#d7f0ee" stroke-width="1.51"/><path d="M-6,-149L-164,-26L-17,-41Z" fill="#e0f3f4" stroke="#e0f3f4" stroke-width="1.51"/><path d="M832,354L800,126L639,281Z" fill="#5fae81" stroke="#5fae81" stroke-width="1.51"/><path d="M477,815L676,779L622,634Z" fill="#309959" stroke="#309959" stroke-width="1.51"/><path d="M1014,507L976,283L832,354Z" fill="#3e9366" stroke="#3e9366" stroke-width="1.51"/><path d="M676,779L806,629L622,634Z" fill="#2c9452" stroke="#2c9452" stroke-width="1.51"/><path d="M-19,841L122,961L170,778Z" fill="#71ae86" stroke="#71ae86" stroke-width="1.51"/><path d="M477,815L628,1009L676,779Z" fill="#278e4f" stroke="#278e4f" stroke-width="1.51"/><path d="M122,961L288,983L297,805Z" fill="#57a077" stroke="#57a077" stroke-width="1.51"/><path d="M122,961L-198,995L288,983Z" fill="#6da07f" stroke="#6da07f" stroke-width="1.51"/><path d="M-19,841L-23,947L122,961Z" fill="#75ab86" stroke="#75ab86" stroke-width="1.51"/><path d="M-197,833L-23,947L-19,841Z" fill="#7fb28f" stroke="#7fb28f" stroke-width="1.51"/><path d="M651,-43L666,-163L508,-60Z" fill="#94cdaf" stroke="#94cdaf" stroke-width="1.51"/><path d="M861,-42L666,-163L651,-43Z" fill="#8ac09c" stroke="#8ac09c" stroke-width="1.51"/><path d="M-219,309L-197,833L-164,633Z" fill="#9cd1b3" stroke="#9cd1b3" stroke-width="1.51"/><path d="M-164,633L-197,833L-19,841Z" fill="#89bd99" stroke="#89bd99" stroke-width="1.51"/><path d="M288,983L511,994L477,815Z" fill="#389161" stroke="#389161" stroke-width="1.51"/><path d="M676,779L786,845L806,629Z" fill="#218742" stroke="#218742" stroke-width="1.51"/><path d="M-6,-149L-193,-160L-164,-26Z" fill="#e7f5f9" stroke="#e7f5f9" stroke-width="1.51"/><path d="M-164,-26L-193,-160L-222,187Z" fill="#e3f4f4" stroke="#e3f4f4" stroke-width="1.51"/><path d="M179,-183L-193,-160L-6,-149Z" fill="#e1f4f4" stroke="#e1f4f4" stroke-width="1.51"/><path d="M1014,507L832,354L809,451Z" fill="#399663" stroke="#399663" stroke-width="1.51"/><path d="M628,1009L786,845L676,779Z" fill="#1b8240" stroke="#1b8240" stroke-width="1.51"/><path d="M800,126L861,-42L651,-43Z" fill="#80ba93" stroke="#80ba93" stroke-width="1.51"/><path d="M832,354L976,283L800,126Z" fill="#57a378" stroke="#57a378" stroke-width="1.51"/><path d="M1014,507L809,451L806,629Z" fill="#2e9258" stroke="#2e9258" stroke-width="1.51"/><path d="M948,11L861,-42L800,126Z" fill="#77b08a" stroke="#77b08a" stroke-width="1.51"/><path d="M511,994L628,1009L477,815Z" fill="#298a52" stroke="#298a52" stroke-width="1.51"/><path d="M288,983L628,1009L511,994Z" fill="#308657" stroke="#308657" stroke-width="1.51"/><path d="M956,839L964,654L806,629Z" fill="#187e3c" stroke="#187e3c" stroke-width="1.51"/><path d="M964,654L1014,507L806,629Z" fill="#23874b" stroke="#23874b" stroke-width="1.51"/><path d="M1013,169L948,11L800,126Z" fill="#6ca781" stroke="#6ca781" stroke-width="1.51"/><path d="M861,-42L852,-207L666,-163Z" fill="#89bb97" stroke="#89bb97" stroke-width="1.51"/><path d="M1013,169L800,126L976,283Z" fill="#5da179" stroke="#5da179" stroke-width="1.51"/><path d="M1014,507L1013,169L976,283Z" fill="#468f69" stroke="#468f69" stroke-width="1.51"/><path d="M-197,833L-198,995L-23,947Z" fill="#80ae8d" stroke="#80ae8d" stroke-width="1.51"/><path d="M-23,947L-198,995L122,961Z" fill="#76a585" stroke="#76a585" stroke-width="1.51"/><path d="M288,983L-198,995L628,1009Z" fill="#529471" stroke="#529471" stroke-width="1.51"/><path d="M-219,309L-198,995L-197,833Z" fill="#92c5a0" stroke="#92c5a0" stroke-width="1.51"/><path d="M1000,-151L852,-207L861,-42Z" fill="#81b08e" stroke="#81b08e" stroke-width="1.51"/><path d="M666,-163L852,-207L484,-174Z" fill="#94c9a7" stroke="#94c9a7" stroke-width="1.51"/><path d="M484,-174L852,-207L179,-183Z" fill="#a3d8c0" stroke="#a3d8c0" stroke-width="1.51"/><path d="M628,1009L848,965L786,845Z" fill="#117635" stroke="#117635" stroke-width="1.51"/><path d="M786,845L956,839L806,629Z" fill="#167e3a" stroke="#167e3a" stroke-width="1.51"/><path d="M848,965L956,839L786,845Z" fill="#077230" stroke="#077230" stroke-width="1.51"/><path d="M964,654L1011,994L1014,507Z" fill="#147236" stroke="#147236" stroke-width="1.51"/><path d="M948,11L1000,-151L861,-42Z" fill="#7aaa89" stroke="#7aaa89" stroke-width="1.51"/><path d="M1013,169L1000,-151L948,11Z" fill="#71a182" stroke="#71a182" stroke-width="1.51"/><path d="M956,839L1011,994L964,654Z" fill="#086a2d" stroke="#086a2d" stroke-width="1.51"/><path d="M848,965L1011,994L956,839Z" fill="#006528" stroke="#006528" stroke-width="1.51"/><path d="M628,1009L1011,994L848,965Z" fill="#08692d" stroke="#08692d" stroke-width="1.51"/></svg>