<svg xmlns="http://www.w3.org/2000/svg" width="800" height="800"><path d="M357,332L180,324L275,453Z" fill="#ffeca3" stroke="#ffeca3" stroke-width="1.51"/><path d="M180,324L174,495L275,453Z" fill="#fee4a2" stroke="#fee4a2" stroke-width="1.51"/><path d="M357,332L291,176L180,324Z" fill="#fee394" stroke="#fee394" stroke-width="1.51"/><path d="M357,332L457,170L291,176Z" fill="#ffe49b" stroke="#ffe49b" stroke-width="1.51"/><path d="M473,518L516,286L357,332Z" fill="#fafac6" stroke="#fafac6" stroke-width="1.51"/><path d="M275,453L473,518L357,332Z" fill="#fcfac1" stroke="#fcfac1" stroke-width="1.51"/><path d="M451,625L473,518L275,453Z" fill="#f1f9db" stroke="#f1f9db" stroke-width="1.51"/><path d="M291,176L170,114L180,324Z" fill="#ffcb7c" stroke="#ffcb7c" stroke-width="1.51"/><path d="M180,324L-45,454L174,495Z" fill="#ffcf91" stroke="#ffcf91" stroke-width="1.51"/><path d="M274,15L170,114L291,176Z" fill="#febc71" stroke="#febc71" stroke-width="1.51"/><path d="M516,286L457,170L357,332Z" fill="#fbedb0" stroke="#fbedb0" stroke-width="1.51"/><path d="M170,114L19,185L180,324Z" fill="#febb6d" stroke="#febb6d" stroke-width="1.51"/><path d="M19,185L-41,301L180,324Z" fill="#feb670" stroke="#feb670" stroke-width="1.51"/><path d="M279,687L451,625L275,453Z" fill="#e8eccd" stroke="#e8eccd" stroke-width="1.51"/><path d="M-41,301L-45,454L180,324Z" fill="#ffbc7c" stroke="#ffbc7c" stroke-width="1.51"/><path d="M174,495L279,687L275,453Z" fill="#f1e4c0" stroke="#f1e4c0" stroke-width="1.51"/><path d="M-29,621L188,677L174,495Z" fill="#ebc6a6" stroke="#ebc6a6" stroke-width="1.51"/><path d="M188,677L279,687L174,495Z" fill="#e6d7b6" stroke="#e6d7b6" stroke-width="1.51"/><path d="M457,170L274,15L291,176Z" fill="#ffcd84" stroke="#ffcd84" stroke-width="1.51"/><path d="M170,114L-17,-41L19,185Z" fill="#fa9253" stroke="#fa9253" stroke-width="1.51"/><path d="M457,170L508,-60L274,15Z" fill="#ffc287" stroke="#ffc287" stroke-width="1.51"/><path d="M516,286L610,167L457,170Z" fill="#f5dfb8" stroke="#f5dfb8" stroke-width="1.51"/><path d="M644,521L639,281L516,286Z" fill="#e6eed2" stroke="#e6eed2" stroke-width="1.51"/><path d="M644,521L516,286L473,518Z" fill="#eaf6e4" stroke="#eaf6e4" stroke-width="1.51"/><path d="M274,15L181,-12L170,114Z" fill="#fda864" stroke="#fda864" stroke-width="1.51"/><path d="M639,281L610,167L516,286Z" fill="#eae0be" stroke="#eae0be" stroke-width="1.51"/><path d="M-45,454L-29,621L174,495Z" fill="#f7bb9d" stroke="#f7bb9d" stroke-width="1.51"/><path d="M622,634L644,521L473,518Z" fill="#d3ecf4" stroke="#d3ecf4" stroke-width="1.51"/><path d="M188,677L170,778L279,687Z" fill="#d5cbb0" stroke="#d5cbb0" stroke-width="1.51"/><path d="M279,687L477,815L451,625Z" fill="#d1e5d2" stroke="#d1e5d2" stroke-width="1.51"/><path d="M451,625L622,634L473,518Z" fill="#d8eef1" stroke="#d8eef1" stroke-width="1.51"/><path d="M-29,621L170,778L188,677Z" fill="#dcbba1" stroke="#dcbba1" stroke-width="1.51"/><path d="M-219,309L-157,460L-41,301Z" fill="#f39b68" stroke="#f39b68" stroke-width="1.51"/><path d="M-41,301L-157,460L-45,454Z" fill="#f9aa76" stroke="#f9aa76" stroke-width="1.51"/><path d="M-45,454L-157,460L-29,621Z" fill="#f2a68d" stroke="#f2a68d" stroke-width="1.51"/><path d="M170,778L297,805L279,687Z" fill="#cccbb3" stroke="#cccbb3" stroke-width="1.51"/><path d="M477,815L622,634L451,625Z" fill="#c4e3eb" stroke="#c4e3eb" stroke-width="1.51"/><path d="M274,15L295,-164L181,-12Z" fill="#f79c5f" stroke="#f79c5f" stroke-width="1.51"/><path d="M610,167L508,-60L457,170Z" fill="#f7c8a5" stroke="#f7c8a5" stroke-width="1.51"/><path d="M-222,187L-219,309L-41,301Z" fill="#ec8e59" stroke="#ec8e59" stroke-width="1.51"/><path d="M-222,187L-41,301L19,185Z" fill="#f49258" stroke="#f49258" stroke-width="1.51"/><path d="M181,-12L-17,-41L170,114Z" fill="#f99052" stroke="#f99052" stroke-width="1.51"/><path d="M-6,-149L-17,-41L181,-12Z" fill="#f06f42" stroke="#f06f42" stroke-width="1.51"/><path d="M297,805L477,815L279,687Z" fill="#c7d5c4" stroke="#c7d5c4" stroke-width="1.51"/><path d="M-157,460L-164,633L-29,621Z" fill="#e79a8b" stroke="#e79a8b" stroke-width="1.51"/><path d="M-29,621L-19,841L170,778Z" fill="#d3a393" stroke="#d3a393" stroke-width="1.51"/><path d="M-219,309L-164,633L-157,460Z" fill="#e8987c" stroke="#e8987c" stroke-width="1.51"/><path d="M-164,-26L-222,187L19,185Z" fill="#ed7442" stroke="#ed7442" stroke-width="1.51"/><path d="M508,-60L295,-164L274,15Z" fill="#f9a770" stroke="#f9a770" stroke-width="1.51"/><path d="M295,-164L179,-183L181,-12Z" fill="#f18b53" stroke="#f18b53" stroke-width="1.51"/><path d="M806,629L809,451L644,521Z" fill="#b5d8e9" stroke="#b5d8e9" stroke-width="1.51"/><path d="M644,521L809,451L639,281Z" fill="#d1e6d6" stroke="#d1e6d6" stroke-width="1.51"/><path d="M639,281L800,126L610,167Z" fill="#dbcdaf" stroke="#dbcdaf" stroke-width="1.51"/><path d="M610,167L651,-43L508,-60Z" fill="#edb39b" stroke="#edb39b" stroke-width="1.51"/><path d="M806,629L644,521L622,634Z" fill="#b6dceb" stroke="#b6dceb" stroke-width="1.51"/><path d="M800,126L651,-43L610,167Z" fill="#ddb69e" stroke="#ddb69e" stroke-width="1.51"/><path d="M508,-60L484,-174L295,-164Z" fill="#f39f76" stroke="#f39f76" stroke-width="1.51"/><path d="M170,778L122,961L297,805Z" fill="#beafa2" stroke="#beafa2" stroke-width="1.51"/><path d="M297,805L288,983L477,815Z" fill="#b7c1bb" stroke="#b7c1bb" stroke-width="1.51"/><path d="M-164,633L-19,841L-29,621Z" fill="#d6958a" stroke="#d6958a" stroke-width="1.51"/><path d="M809,451L832,354L639,281Z" fill="#c8d8c7" stroke="#c8d8c7" stroke-width="1.51"/><path d="M666,-163L484,-174L508,-60Z" fill="#e9998a" stroke="#e9998a" stroke-width="1.51"/><path d="M295,-164L484,-174L179,-183Z" fill="#eb9261" stroke="#eb9261" stroke-width="1.51"/><path d="M179,-183L-6,-149L181,-12Z" fill="#ee7644" stroke="#ee7644" stroke-width="1.51"/><path d="M-17,-41L-164,-26L19,185Z" fill="#f16e42" stroke="#f16e42" stroke-width="1.51"/><path d="M-6,-149L-164,-26L-17,-41Z" fill="#e65335" stroke="#e65335" stroke-width="1.51"/><path d="M832,354L800,126L639,281Z" fill="#cbccb4" stroke="#cbccb4" stroke-width="1.51"/><path d="M477,815L676,779L622,634Z" fill="#acd4e7" stroke="#acd4e7" stroke-width="1.51"/><path d="M1014,507L976,283L832,354Z" fill="#abb4b8" stroke="#abb4b8" stroke-width="1.51"/><path d="M676,779L806,629L622,634Z" fill="#a2d1e5" stroke="#a2d1e5" stroke-width="1.51"/><path d="M-19,841L122,961L170,778Z" fill="#bf9990" stroke="#bf9990" stroke-width="1.51"/><path d="M477,815L628,1009L676,779Z" fill="#96bbda" stroke="#96bbda" stroke-width="1.51"/><path d="M122,961L288,983L297,805Z" fill="#b3a8a2" stroke="#b3a8a2" stroke-width="1.51"/><path d="M122,961L-198,995L288,983Z" fill="#af7882" stroke="#af7882" stroke-width="1.51"/><path d="M-19,841L-23,947L122,961Z" fill="#b77e83" stroke="#b77e83" stroke-width="1.51"/><path d="M-197,833L-23,947L-19,841Z" fill="#b7747a" stroke="#b7747a" stroke-width="1.51"/><path d="M651,-43L666,-163L508,-60Z" fill="#e39c8d" stroke="#e39c8d" stroke-width="1.51"/><path d="M861,-42L666,-163L651,-43Z" fill="#d08f86" stroke="#d08f86" stroke-width="1.51"/><path d="M-219,309L-197,833L-164,633Z" fill="#d78e87" stroke="#d78e87" stroke-width="1.51"/><path d="M-164,633L-197,833L-19,841Z" fill="#c4807d" stroke="#c4807d" stroke-width="1.51"/><path d="M288,983L511,994L477,815Z" fill="#a9b8c1" stroke="#a9b8c1" stroke-width="1.51"/><path d="M676,779L786,845L806,629Z" fill="#89bdda" stroke="#89bdda" stroke-width="1.51"/><path d="M-6,-149L-193,-160L-164,-26Z" fill="#dc3c2b" stroke="#dc3c2b" stroke-width="1.51"/><path d="M-164,-26L-193,-160L-222,187Z" fill="#db4c35" stroke="#db4c35" stroke-width="1.51"/><path d="M179,-183L-193,-160L-6,-149Z" fill="#e04e34" stroke="#e04e34" stroke-width="1.51"/><path d="M1014,507L832,354L809,451Z" fill="#aec1c8" stroke="#aec1c8" stroke-width="1.51"/><path d="M628,1009L786,845L676,779Z" fill="#7faed3" stroke="#7faed3" stroke-width="1.51"/><path d="M800,126L861,-42L651,-43Z" fill="#ce998f" stroke="#ce998f" stroke-width="1.51"/><path d="M832,354L976,283L800,126Z" fill="#b9b5aa" stroke="#b9b5aa" stroke-width="1.51"/><path d="M1014,507L809,451L806,629Z" fill="#a2bfdc" stroke="#a2bfdc" stroke-width="1.51"/><path d="M948,11L861,-42L800,126Z" fill="#be8a88" stroke="#be8a88" stroke-width="1.51"/><path d="M511,994L628,1009L477,815Z" fill="#95b1d6" stroke="#95b1d6" stroke-width="1.51"/><path d="M288,983L628,1009L511,994Z" fill="#9da5c4" stroke="#9da5c4" stroke-width="1.51"/><path d="M956,839L964,654L806,629Z" fill="#78a6ce" stroke="#78a6ce" stroke-width="1.51"/><path d="M964,654L1014,507L806,629Z" fill="#8caed4" stroke="#8caed4" stroke-width="1.51"/><path d="M1013,169L948,11L800,126Z" fill="#b68e8c" stroke="#b68e8c" stroke-width="1.51"/><path d="M861,-42L852,-207L666,-163Z" fill="#bf7a7a" stroke="#bf7a7a" stroke-width="1.51"/><path d="M1013,169L800,126L976,283Z" fill="#b29d99" stroke="#b29d99" stroke-width="1.51"/><path d="M1014,507L1013,169L976,283Z" fill="#a99da7" stroke="#a99da7" stroke-width="1.51"/><path d="M-197,833L-198,995L-23,947Z" fill="#aa5e6f" stroke="#aa5e6f" stroke-width="1.51"/><path d="M-23,947L-198,995L122,961Z" fill="#ad6677" stroke="#ad6677" stroke-width="1.51"/><path d="M288,983L-198,995L628,1009Z" fill="#ab959b" stroke="#ab959b" stroke-width="1.51"/><path d="M-219,309L-198,995L-197,833Z" fill="#c1807f" stroke="#c1807f" stroke-width="1.51"/><path d="M1000,-151L852,-207L861,-42Z" fill="#ae6371" stroke="#ae6371" stroke-width="1.51"/><path d="M666,-163L852,-207L484,-174Z" fill="#cd8983" stroke="#cd8983" stroke-width="1.51"/><path d="M484,-174L852,-207L179,-183Z" fill="#e49584" stroke="#e49584" stroke-width="1.51"/><path d="M628,1009L848,965L786,845Z" fill="#6998c7" stroke="#6998c7" stroke-width="1.51"/><path d="M786,845L956,839L806,629Z" fill="#74a8cf" stroke="#74a8cf" stroke-width="1.51"/><path d="M848,965L956,839L786,845Z" fill="#5d8fc2" stroke="#5d8fc2" stroke-width="1.51"/><path d="M964,654L1011,994L1014,507Z" fill="#6d8fc3" stroke="#6d8fc3" stroke-width="1.51"/><path d="M948,11L1000,-151L861,-42Z" fill="#ae6a76" stroke="#ae6a76" stroke-width="1.51"/><path d="M1013,169L1000,-151L948,11Z" fill="#ae697a" stroke="#ae697a" stroke-width="1.51"/><path d="M956,839L1011,994L964,654Z" fill="#5881bb" stroke="#5881bb" stroke-width="1.51"/><path d="M848,965L1011,994L956,839Z" fill="#4676b5" stroke="#4676b5" stroke-width="1.51"/><path d="M628,1009L1011,994L848,965Z" fill="#577fba" stroke="#577fba" stroke-width="1.51"/></svg>