<svg xmlns="http://www.w3.org/2000/svg" width="1440" height="900"><path d="M630,529L797,294L583,391Z" fill="#faf2e7" stroke="#faf2e7" stroke-width="1.51"/><path d="M630,529L823,580L797,294Z" fill="#f3f3f5" stroke="#f3f3f5" stroke-width="1.51"/><path d="M797,294L602,143L583,391Z" fill="#fde8cd" stroke="#fde8cd" stroke-width="1.51"/><path d="M1020,323L844,145L797,294Z" fill="#f1decd" stroke="#f1decd" stroke-width="1.51"/><path d="M844,145L602,143L797,294Z" fill="#fce0c2" stroke="#fce0c2" stroke-width="1.51"/><path d="M583,391L344,584L630,529Z" fill="#f7e8d7" stroke="#f7e8d7" stroke-width="1.51"/><path d="M602,143L432,321L583,391Z" fill="#fee2bd" stroke="#fee2bd" stroke-width="1.51"/><path d="M823,580L1020,323L797,294Z" fill="#ede9e9" stroke="#ede9e9" stroke-width="1.51"/><path d="M630,529L587,758L823,580Z" fill="#e9e6eb" stroke="#e9e6eb" stroke-width="1.51"/><path d="M344,584L587,758L630,529Z" fill="#ecded4" stroke="#ecded4" stroke-width="1.51"/><path d="M823,580L1084,592L1020,323Z" fill="#e0e0ee" stroke="#e0e0ee" stroke-width="1.51"/><path d="M1080,741L1084,592L823,580Z" fill="#d1d1e6" stroke="#d1d1e6" stroke-width="1.51"/><path d="M432,321L344,584L583,391Z" fill="#fde6ca" stroke="#fde6ca" stroke-width="1.51"/><path d="M602,143L438,117L432,321Z" fill="#ffd5a0" stroke="#ffd5a0" stroke-width="1.51"/><path d="M432,321L191,522L344,584Z" fill="#fdd9b3" stroke="#fdd9b3" stroke-width="1.51"/><path d="M657,-134L438,117L602,143Z" fill="#fcc68a" stroke="#fcc68a" stroke-width="1.51"/><path d="M587,758L849,823L823,580Z" fill="#dad9e9" stroke="#dad9e9" stroke-width="1.51"/><path d="M1020,323L1061,138L844,145Z" fill="#ecd0bd" stroke="#ecd0bd" stroke-width="1.51"/><path d="M844,145L657,-134L602,143Z" fill="#fdcea0" stroke="#fdcea0" stroke-width="1.51"/><path d="M1300,391L1061,138L1020,323Z" fill="#dcc9c8" stroke="#dcc9c8" stroke-width="1.51"/><path d="M849,823L1080,741L823,580Z" fill="#cfcfe5" stroke="#cfcfe5" stroke-width="1.51"/><path d="M646,1013L830,958L849,823Z" fill="#bdb7d4" stroke="#bdb7d4" stroke-width="1.51"/><path d="M344,584L388,823L587,758Z" fill="#e4cabf" stroke="#e4cabf" stroke-width="1.51"/><path d="M1037,-92L841,-105L844,145Z" fill="#ecb891" stroke="#ecb891" stroke-width="1.51"/><path d="M344,584L167,782L388,823Z" fill="#e5bca4" stroke="#e5bca4" stroke-width="1.51"/><path d="M144,297L191,522L432,321Z" fill="#fecf9c" stroke="#fecf9c" stroke-width="1.51"/><path d="M849,823L1046,1016L1080,741Z" fill="#b8b2d5" stroke="#b8b2d5" stroke-width="1.51"/><path d="M646,1013L849,823L587,758Z" fill="#cbc4da" stroke="#cbc4da" stroke-width="1.51"/><path d="M841,-105L657,-134L844,145Z" fill="#f4be91" stroke="#f4be91" stroke-width="1.51"/><path d="M1080,741L1256,592L1084,592Z" fill="#c4c2de" stroke="#c4c2de" stroke-width="1.51"/><path d="M1084,592L1300,391L1020,323Z" fill="#d7d2e3" stroke="#d7d2e3" stroke-width="1.51"/><path d="M1309,815L1256,592L1080,741Z" fill="#b4aed3" stroke="#b4aed3" stroke-width="1.51"/><path d="M1256,592L1300,391L1084,592Z" fill="#c7c2dd" stroke="#c7c2dd" stroke-width="1.51"/><path d="M1061,138L1037,-92L844,145Z" fill="#ebbf9e" stroke="#ebbf9e" stroke-width="1.51"/><path d="M438,117L144,297L432,321Z" fill="#ffcd90" stroke="#ffcd90" stroke-width="1.51"/><path d="M178,81L144,297L438,117Z" fill="#fcbc6e" stroke="#fcbc6e" stroke-width="1.51"/><path d="M430,1003L646,1013L587,758Z" fill="#c7b3bf" stroke="#c7b3bf" stroke-width="1.51"/><path d="M1267,-75L1037,-92L1061,138Z" fill="#dba489" stroke="#dba489" stroke-width="1.51"/><path d="M841,-105L796,-287L657,-134Z" fill="#e6ac84" stroke="#e6ac84" stroke-width="1.51"/><path d="M657,-134L425,-133L438,117Z" fill="#f5b56f" stroke="#f5b56f" stroke-width="1.51"/><path d="M425,-133L178,81L438,117Z" fill="#f9b25f" stroke="#f9b25f" stroke-width="1.51"/><path d="M1300,391L1286,98L1061,138Z" fill="#d5b6b1" stroke="#d5b6b1" stroke-width="1.51"/><path d="M388,823L430,1003L587,758Z" fill="#d2b8b8" stroke="#d2b8b8" stroke-width="1.51"/><path d="M167,980L430,1003L388,823Z" fill="#ca9e97" stroke="#ca9e97" stroke-width="1.51"/><path d="M191,522L167,782L344,584Z" fill="#eec29f" stroke="#eec29f" stroke-width="1.51"/><path d="M-24,599L167,782L191,522Z" fill="#e8b28c" stroke="#e8b28c" stroke-width="1.51"/><path d="M839,1220L1046,1016L830,958Z" fill="#a493c3" stroke="#a493c3" stroke-width="1.51"/><path d="M830,958L1046,1016L849,823Z" fill="#b4aed1" stroke="#b4aed1" stroke-width="1.51"/><path d="M1265,1017L1309,815L1080,741Z" fill="#a299c6" stroke="#a299c6" stroke-width="1.51"/><path d="M1256,592L1477,601L1300,391Z" fill="#b8b1d1" stroke="#b8b1d1" stroke-width="1.51"/><path d="M657,-134L613,-359L425,-133Z" fill="#e3a36d" stroke="#e3a36d" stroke-width="1.51"/><path d="M1040,-344L796,-287L841,-105Z" fill="#d49b7d" stroke="#d49b7d" stroke-width="1.51"/><path d="M1040,-344L841,-105L1037,-92Z" fill="#d79d7d" stroke="#d79d7d" stroke-width="1.51"/><path d="M1286,98L1267,-75L1061,138Z" fill="#d6a390" stroke="#d6a390" stroke-width="1.51"/><path d="M646,1013L839,1220L830,958Z" fill="#ae9bc7" stroke="#ae9bc7" stroke-width="1.51"/><path d="M430,1003L621,1166L646,1013Z" fill="#b597b3" stroke="#b597b3" stroke-width="1.51"/><path d="M352,1251L621,1166L430,1003Z" fill="#ae7f9c" stroke="#ae7f9c" stroke-width="1.51"/><path d="M144,297L-32,356L191,522Z" fill="#f6bc85" stroke="#f6bc85" stroke-width="1.51"/><path d="M-11,128L-32,356L144,297Z" fill="#f0ac65" stroke="#f0ac65" stroke-width="1.51"/><path d="M1286,98L1438,-145L1267,-75Z" fill="#c28474" stroke="#c28474" stroke-width="1.51"/><path d="M1300,391L1440,142L1286,98Z" fill="#c7a5a6" stroke="#c7a5a6" stroke-width="1.51"/><path d="M1519,342L1440,142L1300,391Z" fill="#bda1b2" stroke="#bda1b2" stroke-width="1.51"/><path d="M425,-133L183,-124L178,81Z" fill="#ef9d3f" stroke="#ef9d3f" stroke-width="1.51"/><path d="M178,81L-11,128L144,297Z" fill="#f4a957" stroke="#f4a957" stroke-width="1.51"/><path d="M365,-283L183,-124L425,-133Z" fill="#e39343" stroke="#e39343" stroke-width="1.51"/><path d="M-32,356L-24,599L191,522Z" fill="#f0b688" stroke="#f0b688" stroke-width="1.51"/><path d="M1453,784L1477,601L1256,592Z" fill="#a69dc7" stroke="#a69dc7" stroke-width="1.51"/><path d="M796,-287L613,-359L657,-134Z" fill="#dda37c" stroke="#dda37c" stroke-width="1.51"/><path d="M613,-359L365,-283L425,-133Z" fill="#db975a" stroke="#db975a" stroke-width="1.51"/><path d="M4,827L167,980L167,782Z" fill="#cd917c" stroke="#cd917c" stroke-width="1.51"/><path d="M167,782L167,980L388,823Z" fill="#d3a18f" stroke="#d3a18f" stroke-width="1.51"/><path d="M-29,-124L-11,128L178,81Z" fill="#e7902f" stroke="#e7902f" stroke-width="1.51"/><path d="M1477,601L1519,342L1300,391Z" fill="#b6a8cc" stroke="#b6a8cc" stroke-width="1.51"/><path d="M1309,815L1453,784L1256,592Z" fill="#a49cc7" stroke="#a49cc7" stroke-width="1.51"/><path d="M1046,1016L1265,1017L1080,741Z" fill="#a29ac6" stroke="#a29ac6" stroke-width="1.51"/><path d="M1056,1171L1265,1017L1046,1016Z" fill="#917db7" stroke="#917db7" stroke-width="1.51"/><path d="M621,1166L839,1220L646,1013Z" fill="#a98ebe" stroke="#a98ebe" stroke-width="1.51"/><path d="M1442,949L1453,784L1309,815Z" fill="#9082b7" stroke="#9082b7" stroke-width="1.51"/><path d="M1477,601L1655,586L1519,342Z" fill="#a58fc1" stroke="#a58fc1" stroke-width="1.51"/><path d="M839,1220L1056,1171L1046,1016Z" fill="#967db8" stroke="#967db8" stroke-width="1.51"/><path d="M796,-287L1040,-344L613,-359Z" fill="#cb987b" stroke="#cb987b" stroke-width="1.51"/><path d="M1316,-294L1040,-344L1037,-92Z" fill="#c08472" stroke="#c08472" stroke-width="1.51"/><path d="M-24,599L4,827L167,782Z" fill="#d99d7e" stroke="#d99d7e" stroke-width="1.51"/><path d="M1265,1017L1442,949L1309,815Z" fill="#8a7fb4" stroke="#8a7fb4" stroke-width="1.51"/><path d="M1692,753L1655,586L1477,601Z" fill="#947ab6" stroke="#947ab6" stroke-width="1.51"/><path d="M1434,1187L1442,949L1265,1017Z" fill="#7761a4" stroke="#7761a4" stroke-width="1.51"/><path d="M1267,-75L1316,-294L1037,-92Z" fill="#c48672" stroke="#c48672" stroke-width="1.51"/><path d="M1440,142L1438,-145L1286,98Z" fill="#c0887d" stroke="#c0887d" stroke-width="1.51"/><path d="M1734,90L1438,-145L1440,142Z" fill="#b16c72" stroke="#b16c72" stroke-width="1.51"/><path d="M621,1166L352,1251L839,1220Z" fill="#a27ea3" stroke="#a27ea3" stroke-width="1.51"/><path d="M167,980L352,1251L430,1003Z" fill="#b88088" stroke="#b88088" stroke-width="1.51"/><path d="M190,1264L352,1251L167,980Z" fill="#aa6472" stroke="#aa6472" stroke-width="1.51"/><path d="M183,-124L-29,-124L178,81Z" fill="#e58a24" stroke="#e58a24" stroke-width="1.51"/><path d="M365,-283L223,-352L183,-124Z" fill="#d68333" stroke="#d68333" stroke-width="1.51"/><path d="M613,-359L223,-352L365,-283Z" fill="#ce8a4d" stroke="#ce8a4d" stroke-width="1.51"/><path d="M1438,-145L1316,-294L1267,-75Z" fill="#b37268" stroke="#b37268" stroke-width="1.51"/><path d="M-11,128L-254,317L-32,356Z" fill="#e29f61" stroke="#e29f61" stroke-width="1.51"/><path d="M-30,-299L-29,-124L183,-124Z" fill="#cf720f" stroke="#cf720f" stroke-width="1.51"/><path d="M352,1251L1239,1210L839,1220Z" fill="#967cae" stroke="#967cae" stroke-width="1.51"/><path d="M839,1220L1239,1210L1056,1171Z" fill="#886da9" stroke="#886da9" stroke-width="1.51"/><path d="M1056,1171L1239,1210L1265,1017Z" fill="#8368ac" stroke="#8368ac" stroke-width="1.51"/><path d="M1519,342L1734,90L1440,142Z" fill="#b17c91" stroke="#b17c91" stroke-width="1.51"/><path d="M1692,753L1477,601L1453,784Z" fill="#937cb7" stroke="#937cb7" stroke-width="1.51"/><path d="M4,827L-61,997L167,980Z" fill="#bd7d6d" stroke="#bd7d6d" stroke-width="1.51"/><path d="M-235,807L-61,997L4,827Z" fill="#b87a6c" stroke="#b87a6c" stroke-width="1.51"/><path d="M-235,807L4,827L-24,599Z" fill="#cb8f77" stroke="#cb8f77" stroke-width="1.51"/><path d="M-270,564L-24,599L-32,356Z" fill="#dfa681" stroke="#dfa681" stroke-width="1.51"/><path d="M-258,102L-254,317L-11,128Z" fill="#d88f4b" stroke="#d88f4b" stroke-width="1.51"/><path d="M352,1251L190,1264L1239,1210Z" fill="#9e7a9c" stroke="#9e7a9c" stroke-width="1.51"/><path d="M-16,1259L190,1264L167,980Z" fill="#a4555f" stroke="#a4555f" stroke-width="1.51"/><path d="M1655,586L1729,379L1519,342Z" fill="#a387b7" stroke="#a387b7" stroke-width="1.51"/><path d="M-254,317L-270,564L-32,356Z" fill="#daa179" stroke="#daa179" stroke-width="1.51"/><path d="M1690,994L1692,753L1453,784Z" fill="#7c60a5" stroke="#7c60a5" stroke-width="1.51"/><path d="M1655,586L1692,753L1729,379Z" fill="#9279ac" stroke="#9279ac" stroke-width="1.51"/><path d="M1690,994L1453,784L1442,949Z" fill="#7b63a6" stroke="#7b63a6" stroke-width="1.51"/><path d="M-254,317L-258,102L-270,564Z" fill="#d09668" stroke="#d09668" stroke-width="1.51"/><path d="M-29,-124L-258,102L-11,128Z" fill="#d9832c" stroke="#d9832c" stroke-width="1.51"/><path d="M-270,564L-235,807L-24,599Z" fill="#ca9279" stroke="#ca9279" stroke-width="1.51"/><path d="M223,-352L-30,-299L183,-124Z" fill="#cc731b" stroke="#cc731b" stroke-width="1.51"/><path d="M-29,-124L-255,-117L-258,102Z" fill="#c86f15" stroke="#c86f15" stroke-width="1.51"/><path d="M1239,1210L1434,1187L1265,1017Z" fill="#7458a0" stroke="#7458a0" stroke-width="1.51"/><path d="M1438,-145L1457,-357L1316,-294Z" fill="#a05e5e" stroke="#a05e5e" stroke-width="1.51"/><path d="M1729,379L1734,90L1519,342Z" fill="#a57996" stroke="#a57996" stroke-width="1.51"/><path d="M1677,-360L1457,-357L1438,-145Z" fill="#904756" stroke="#904756" stroke-width="1.51"/><path d="M1316,-294L1457,-357L1040,-344Z" fill="#a46b66" stroke="#a46b66" stroke-width="1.51"/><path d="M1040,-344L1457,-357L613,-359Z" fill="#b88473" stroke="#b88473" stroke-width="1.51"/><path d="M-30,-299L-255,-117L-29,-124Z" fill="#c1640a" stroke="#c1640a" stroke-width="1.51"/><path d="M-258,102L-308,1234L-270,564Z" fill="#bf8d78" stroke="#bf8d78" stroke-width="1.51"/><path d="M-308,1234L-16,1259L-61,997Z" fill="#8f3e51" stroke="#8f3e51" stroke-width="1.51"/><path d="M-61,997L-16,1259L167,980Z" fill="#aa5e60" stroke="#aa5e60" stroke-width="1.51"/><path d="M1434,1187L1690,994L1442,949Z" fill="#6a4b99" stroke="#6a4b99" stroke-width="1.51"/><path d="M1692,753L1731,1203L1729,379Z" fill="#7b5f9c" stroke="#7b5f9c" stroke-width="1.51"/><path d="M-235,807L-273,967L-61,997Z" fill="#a76b64" stroke="#a76b64" stroke-width="1.51"/><path d="M-270,564L-273,967L-235,807Z" fill="#b27c70" stroke="#b27c70" stroke-width="1.51"/><path d="M1734,90L1744,-100L1438,-145Z" fill="#a1515a" stroke="#a1515a" stroke-width="1.51"/><path d="M1729,379L1744,-100L1734,90Z" fill="#9f626c" stroke="#9f626c" stroke-width="1.51"/><path d="M1744,-100L1677,-360L1438,-145Z" fill="#914051" stroke="#914051" stroke-width="1.51"/><path d="M1457,-357L1677,-360L613,-359Z" fill="#a26c67" stroke="#a26c67" stroke-width="1.51"/><path d="M-30,-299L-239,-360L-255,-117Z" fill="#af5506" stroke="#af5506" stroke-width="1.51"/><path d="M223,-352L-239,-360L-30,-299Z" fill="#b35d0b" stroke="#b35d0b" stroke-width="1.51"/><path d="M613,-359L-239,-360L223,-352Z" fill="#c27328" stroke="#c27328" stroke-width="1.51"/><path d="M1677,-360L-239,-360L613,-359Z" fill="#cd9978" stroke="#cd9978" stroke-width="1.51"/><path d="M1434,1187L1731,1203L1690,994Z" fill="#552a86" stroke="#552a86" stroke-width="1.51"/><path d="M1690,994L1731,1203L1692,753Z" fill="#604289" stroke="#604289" stroke-width="1.51"/><path d="M1729,379L1731,1203L1744,-100Z" fill="#957ba8" stroke="#957ba8" stroke-width="1.51"/><path d="M1239,1210L1731,1203L1434,1187Z" fill="#5b3889" stroke="#5b3889" stroke-width="1.51"/><path d="M190,1264L1731,1203L1239,1210Z" fill="#846aa4" stroke="#846aa4" stroke-width="1.51"/><path d="M-270,564L-308,1234L-273,967Z" fill="#9c6462" stroke="#9c6462" stroke-width="1.51"/><path d="M-273,967L-308,1234L-61,997Z" fill="#924c57" stroke="#924c57" stroke-width="1.51"/><path d="M-255,-117L-308,1234L-258,102Z" fill="#cf9a76" stroke="#cf9a76" stroke-width="1.51"/></svg>