<svg xmlns="http://www.w3.org/2000/svg" width="1440" height="900"><path d="M630,529L797,294L583,391Z" fill="#7fadd1" stroke="#7fadd1" stroke-width="1.51"/><path d="M630,529L823,580L797,294Z" fill="#6fa6cd" stroke="#6fa6cd" stroke-width="1.51"/><path d="M797,294L602,143L583,391Z" fill="#8eb3d6" stroke="#8eb3d6" stroke-width="1.51"/><path d="M1020,323L844,145L797,294Z" fill="#7daad0" stroke="#7daad0" stroke-width="1.51"/><path d="M844,145L602,143L797,294Z" fill="#8fb3d5" stroke="#8fb3d5" stroke-width="1.51"/><path d="M583,391L344,584L630,529Z" fill="#81add1" stroke="#81add1" stroke-width="1.51"/><path d="M602,143L432,321L583,391Z" fill="#98b7d8" stroke="#98b7d8" stroke-width="1.51"/><path d="M823,580L1020,323L797,294Z" fill="#6ba4cc" stroke="#6ba4cc" stroke-width="1.51"/><path d="M630,529L587,758L823,580Z" fill="#63a0ca" stroke="#63a0ca" stroke-width="1.51"/><path d="M344,584L587,758L630,529Z" fill="#73a6ce" stroke="#73a6ce" stroke-width="1.51"/><path d="M823,580L1084,592L1020,323Z" fill="#549ac6" stroke="#549ac6" stroke-width="1.51"/><path d="M1080,741L1084,592L823,580Z" fill="#3c91c1" stroke="#3c91c1" stroke-width="1.51"/><path d="M432,321L344,584L583,391Z" fill="#8fb4d5" stroke="#8fb4d5" stroke-width="1.51"/><path d="M602,143L438,117L432,321Z" fill="#a6bddb" stroke="#a6bddb" stroke-width="1.51"/><path d="M432,321L191,522L344,584Z" fill="#95b6d7" stroke="#95b6d7" stroke-width="1.51"/><path d="M657,-134L438,117L602,143Z" fill="#afc1de" stroke="#afc1de" stroke-width="1.51"/><path d="M587,758L849,823L823,580Z" fill="#5297c5" stroke="#5297c5" stroke-width="1.51"/><path d="M1020,323L1061,138L844,145Z" fill="#7aa9cf" stroke="#7aa9cf" stroke-width="1.51"/><path d="M844,145L657,-134L602,143Z" fill="#a2bbda" stroke="#a2bbda" stroke-width="1.51"/><path d="M1300,391L1061,138L1020,323Z" fill="#6a9bc8" stroke="#6a9bc8" stroke-width="1.51"/><path d="M849,823L1080,741L823,580Z" fill="#3e90c1" stroke="#3e90c1" stroke-width="1.51"/><path d="M646,1013L830,958L849,823Z" fill="#4587ba" stroke="#4587ba" stroke-width="1.51"/><path d="M344,584L388,823L587,758Z" fill="#73a3cc" stroke="#73a3cc" stroke-width="1.51"/><path d="M1037,-92L841,-105L844,145Z" fill="#96b6d7" stroke="#96b6d7" stroke-width="1.51"/><path d="M344,584L167,782L388,823Z" fill="#7fa7cf" stroke="#7fa7cf" stroke-width="1.51"/><path d="M144,297L191,522L432,321Z" fill="#a5bddb" stroke="#a5bddb" stroke-width="1.51"/><path d="M849,823L1046,1016L1080,741Z" fill="#2782b9" stroke="#2782b9" stroke-width="1.51"/><path d="M646,1013L849,823L587,758Z" fill="#518ec1" stroke="#518ec1" stroke-width="1.51"/><path d="M841,-105L657,-134L844,145Z" fill="#a2bcda" stroke="#a2bcda" stroke-width="1.51"/><path d="M1080,741L1256,592L1084,592Z" fill="#3389bd" stroke="#3389bd" stroke-width="1.51"/><path d="M1084,592L1300,391L1020,323Z" fill="#5594c4" stroke="#5594c4" stroke-width="1.51"/><path d="M1309,815L1256,592L1080,741Z" fill="#247fb8" stroke="#247fb8" stroke-width="1.51"/><path d="M1256,592L1300,391L1084,592Z" fill="#448bbf" stroke="#448bbf" stroke-width="1.51"/><path d="M1061,138L1037,-92L844,145Z" fill="#89aed2" stroke="#89aed2" stroke-width="1.51"/><path d="M438,117L144,297L432,321Z" fill="#adc0dd" stroke="#adc0dd" stroke-width="1.51"/><path d="M178,81L144,297L438,117Z" fill="#bcc7e0" stroke="#bcc7e0" stroke-width="1.51"/><path d="M430,1003L646,1013L587,758Z" fill="#5e8fc0" stroke="#5e8fc0" stroke-width="1.51"/><path d="M1267,-75L1037,-92L1061,138Z" fill="#89a9d0" stroke="#89a9d0" stroke-width="1.51"/><path d="M841,-105L796,-287L657,-134Z" fill="#adc4df" stroke="#adc4df" stroke-width="1.51"/><path d="M657,-134L425,-133L438,117Z" fill="#bac8e1" stroke="#bac8e1" stroke-width="1.51"/><path d="M425,-133L178,81L438,117Z" fill="#c2cae3" stroke="#c2cae3" stroke-width="1.51"/><path d="M1300,391L1286,98L1061,138Z" fill="#6f9ac8" stroke="#6f9ac8" stroke-width="1.51"/><path d="M388,823L430,1003L587,758Z" fill="#6997c6" stroke="#6997c6" stroke-width="1.51"/><path d="M167,980L430,1003L388,823Z" fill="#7497c4" stroke="#7497c4" stroke-width="1.51"/><path d="M191,522L167,782L344,584Z" fill="#8cb0d4" stroke="#8cb0d4" stroke-width="1.51"/><path d="M-24,599L167,782L191,522Z" fill="#94b5d6" stroke="#94b5d6" stroke-width="1.51"/><path d="M839,1220L1046,1016L830,958Z" fill="#317aac" stroke="#317aac" stroke-width="1.51"/><path d="M830,958L1046,1016L849,823Z" fill="#3381b7" stroke="#3381b7" stroke-width="1.51"/><path d="M1265,1017L1309,815L1080,741Z" fill="#1375b3" stroke="#1375b3" stroke-width="1.51"/><path d="M1256,592L1477,601L1300,391Z" fill="#3f84b8" stroke="#3f84b8" stroke-width="1.51"/><path d="M657,-134L613,-359L425,-133Z" fill="#bfcde4" stroke="#bfcde4" stroke-width="1.51"/><path d="M1040,-344L796,-287L841,-105Z" fill="#a6c1dd" stroke="#a6c1dd" stroke-width="1.51"/><path d="M1040,-344L841,-105L1037,-92Z" fill="#9cbad9" stroke="#9cbad9" stroke-width="1.51"/><path d="M1286,98L1267,-75L1061,138Z" fill="#80a1cc" stroke="#80a1cc" stroke-width="1.51"/><path d="M646,1013L839,1220L830,958Z" fill="#4280b0" stroke="#4280b0" stroke-width="1.51"/><path d="M430,1003L621,1166L646,1013Z" fill="#5988b5" stroke="#5988b5" stroke-width="1.51"/><path d="M352,1251L621,1166L430,1003Z" fill="#6086ae" stroke="#6086ae" stroke-width="1.51"/><path d="M144,297L-32,356L191,522Z" fill="#aec2de" stroke="#aec2de" stroke-width="1.51"/><path d="M-11,128L-32,356L144,297Z" fill="#bfcbe3" stroke="#bfcbe3" stroke-width="1.51"/><path d="M1286,98L1438,-145L1267,-75Z" fill="#849fc8" stroke="#849fc8" stroke-width="1.51"/><path d="M1300,391L1440,142L1286,98Z" fill="#6b93c1" stroke="#6b93c1" stroke-width="1.51"/><path d="M1519,342L1440,142L1300,391Z" fill="#5f8cba" stroke="#5f8cba" stroke-width="1.51"/><path d="M425,-133L183,-124L178,81Z" fill="#ced1e6" stroke="#ced1e6" stroke-width="1.51"/><path d="M178,81L-11,128L144,297Z" fill="#c5cde4" stroke="#c5cde4" stroke-width="1.51"/><path d="M365,-283L183,-124L425,-133Z" fill="#d1d5e8" stroke="#d1d5e8" stroke-width="1.51"/><path d="M-32,356L-24,599L191,522Z" fill="#a6bfdc" stroke="#a6bfdc" stroke-width="1.51"/><path d="M1453,784L1477,601L1256,592Z" fill="#267bb0" stroke="#267bb0" stroke-width="1.51"/><path d="M796,-287L613,-359L657,-134Z" fill="#b8cbe2" stroke="#b8cbe2" stroke-width="1.51"/><path d="M613,-359L365,-283L425,-133Z" fill="#cad3e7" stroke="#cad3e7" stroke-width="1.51"/><path d="M4,827L167,980L167,782Z" fill="#86a3ce" stroke="#86a3ce" stroke-width="1.51"/><path d="M167,782L167,980L388,823Z" fill="#7e9fcb" stroke="#7e9fcb" stroke-width="1.51"/><path d="M-29,-124L-11,128L178,81Z" fill="#d5d5e8" stroke="#d5d5e8" stroke-width="1.51"/><path d="M1477,601L1519,342L1300,391Z" fill="#4a85b5" stroke="#4a85b5" stroke-width="1.51"/><path d="M1309,815L1453,784L1256,592Z" fill="#1e78b0" stroke="#1e78b0" stroke-width="1.51"/><path d="M1046,1016L1265,1017L1080,741Z" fill="#1876b1" stroke="#1876b1" stroke-width="1.51"/><path d="M1056,1171L1265,1017L1046,1016Z" fill="#186fa5" stroke="#186fa5" stroke-width="1.51"/><path d="M621,1166L839,1220L646,1013Z" fill="#497faa" stroke="#497faa" stroke-width="1.51"/><path d="M1442,949L1453,784L1309,815Z" fill="#0d6da8" stroke="#0d6da8" stroke-width="1.51"/><path d="M1477,601L1655,586L1519,342Z" fill="#3f7cab" stroke="#3f7cab" stroke-width="1.51"/><path d="M839,1220L1056,1171L1046,1016Z" fill="#2372a3" stroke="#2372a3" stroke-width="1.51"/><path d="M796,-287L1040,-344L613,-359Z" fill="#b0c7e1" stroke="#b0c7e1" stroke-width="1.51"/><path d="M1316,-294L1040,-344L1037,-92Z" fill="#98b3d6" stroke="#98b3d6" stroke-width="1.51"/><path d="M-24,599L4,827L167,782Z" fill="#91b0d3" stroke="#91b0d3" stroke-width="1.51"/><path d="M1265,1017L1442,949L1309,815Z" fill="#056ba8" stroke="#056ba8" stroke-width="1.51"/><path d="M1692,753L1655,586L1477,601Z" fill="#25719f" stroke="#25719f" stroke-width="1.51"/><path d="M1434,1187L1442,949L1265,1017Z" fill="#04639b" stroke="#04639b" stroke-width="1.51"/><path d="M1267,-75L1316,-294L1037,-92Z" fill="#8fabd1" stroke="#8fabd1" stroke-width="1.51"/><path d="M1440,142L1438,-145L1286,98Z" fill="#7d99c2" stroke="#7d99c2" stroke-width="1.51"/><path d="M1734,90L1438,-145L1440,142Z" fill="#7993b8" stroke="#7993b8" stroke-width="1.51"/><path d="M621,1166L352,1251L839,1220Z" fill="#4f7ba2" stroke="#4f7ba2" stroke-width="1.51"/><path d="M167,980L352,1251L430,1003Z" fill="#7090b8" stroke="#7090b8" stroke-width="1.51"/><path d="M190,1264L352,1251L167,980Z" fill="#738baf" stroke="#738baf" stroke-width="1.51"/><path d="M183,-124L-29,-124L178,81Z" fill="#d8d7ea" stroke="#d8d7ea" stroke-width="1.51"/><path d="M365,-283L223,-352L183,-124Z" fill="#dadaeb" stroke="#dadaeb" stroke-width="1.51"/><path d="M613,-359L223,-352L365,-283Z" fill="#d2d8ea" stroke="#d2d8ea" stroke-width="1.51"/><path d="M1438,-145L1316,-294L1267,-75Z" fill="#8ca5cb" stroke="#8ca5cb" stroke-width="1.51"/><path d="M-11,128L-254,317L-32,356Z" fill="#c6d0e6" stroke="#c6d0e6" stroke-width="1.51"/><path d="M-30,-299L-29,-124L183,-124Z" fill="#e3e0ee" stroke="#e3e0ee" stroke-width="1.51"/><path d="M352,1251L1239,1210L839,1220Z" fill="#38729b" stroke="#38729b" stroke-width="1.51"/><path d="M839,1220L1239,1210L1056,1171Z" fill="#1c6a98" stroke="#1c6a98" stroke-width="1.51"/><path d="M1056,1171L1239,1210L1265,1017Z" fill="#10679d" stroke="#10679d" stroke-width="1.51"/><path d="M1519,342L1734,90L1440,142Z" fill="#678ab2" stroke="#678ab2" stroke-width="1.51"/><path d="M1692,753L1477,601L1453,784Z" fill="#1d71a5" stroke="#1d71a5" stroke-width="1.51"/><path d="M4,827L-61,997L167,980Z" fill="#88a1ca" stroke="#88a1ca" stroke-width="1.51"/><path d="M-235,807L-61,997L4,827Z" fill="#91aad2" stroke="#91aad2" stroke-width="1.51"/><path d="M-235,807L4,827L-24,599Z" fill="#97b4d6" stroke="#97b4d6" stroke-width="1.51"/><path d="M-270,564L-24,599L-32,356Z" fill="#adc4df" stroke="#adc4df" stroke-width="1.51"/><path d="M-258,102L-254,317L-11,128Z" fill="#d1d6e9" stroke="#d1d6e9" stroke-width="1.51"/><path d="M352,1251L190,1264L1239,1210Z" fill="#4f799e" stroke="#4f799e" stroke-width="1.51"/><path d="M-16,1259L190,1264L167,980Z" fill="#7a90b2" stroke="#7a90b2" stroke-width="1.51"/><path d="M1655,586L1729,379L1519,342Z" fill="#477aa4" stroke="#477aa4" stroke-width="1.51"/><path d="M-254,317L-270,564L-32,356Z" fill="#b9cce3" stroke="#b9cce3" stroke-width="1.51"/><path d="M1690,994L1692,753L1453,784Z" fill="#0c6398" stroke="#0c6398" stroke-width="1.51"/><path d="M1655,586L1692,753L1729,379Z" fill="#31709a" stroke="#31709a" stroke-width="1.51"/><path d="M1690,994L1453,784L1442,949Z" fill="#05649d" stroke="#05649d" stroke-width="1.51"/><path d="M-254,317L-258,102L-270,564Z" fill="#c5d2e7" stroke="#c5d2e7" stroke-width="1.51"/><path d="M-29,-124L-258,102L-11,128Z" fill="#dcdbeb" stroke="#dcdbeb" stroke-width="1.51"/><path d="M-270,564L-235,807L-24,599Z" fill="#9fbedb" stroke="#9fbedb" stroke-width="1.51"/><path d="M223,-352L-30,-299L183,-124Z" fill="#e3e0ee" stroke="#e3e0ee" stroke-width="1.51"/><path d="M-29,-124L-255,-117L-258,102Z" fill="#e5e1ef" stroke="#e5e1ef" stroke-width="1.51"/><path d="M1239,1210L1434,1187L1265,1017Z" fill="#056097" stroke="#056097" stroke-width="1.51"/><path d="M1438,-145L1457,-357L1316,-294Z" fill="#8fa5c9" stroke="#8fa5c9" stroke-width="1.51"/><path d="M1729,379L1734,90L1519,342Z" fill="#5b80a6" stroke="#5b80a6" stroke-width="1.51"/><path d="M1677,-360L1457,-357L1438,-145Z" fill="#8da1c1" stroke="#8da1c1" stroke-width="1.51"/><path d="M1316,-294L1457,-357L1040,-344Z" fill="#96add3" stroke="#96add3" stroke-width="1.51"/><path d="M1040,-344L1457,-357L613,-359Z" fill="#a1bddb" stroke="#a1bddb" stroke-width="1.51"/><path d="M-30,-299L-255,-117L-29,-124Z" fill="#ebe5f2" stroke="#ebe5f2" stroke-width="1.51"/><path d="M-258,102L-308,1234L-270,564Z" fill="#a6c2dd" stroke="#a6c2dd" stroke-width="1.51"/><path d="M-308,1234L-16,1259L-61,997Z" fill="#8699b7" stroke="#8699b7" stroke-width="1.51"/><path d="M-61,997L-16,1259L167,980Z" fill="#839abe" stroke="#839abe" stroke-width="1.51"/><path d="M1434,1187L1690,994L1442,949Z" fill="#045d93" stroke="#045d93" stroke-width="1.51"/><path d="M1692,753L1731,1203L1729,379Z" fill="#146190" stroke="#146190" stroke-width="1.51"/><path d="M-235,807L-273,967L-61,997Z" fill="#92a9cf" stroke="#92a9cf" stroke-width="1.51"/><path d="M-270,564L-273,967L-235,807Z" fill="#9cb6d8" stroke="#9cb6d8" stroke-width="1.51"/><path d="M1734,90L1744,-100L1438,-145Z" fill="#7a8fb0" stroke="#7a8fb0" stroke-width="1.51"/><path d="M1729,379L1744,-100L1734,90Z" fill="#6781a1" stroke="#6781a1" stroke-width="1.51"/><path d="M1744,-100L1677,-360L1438,-145Z" fill="#8598b6" stroke="#8598b6" stroke-width="1.51"/><path d="M1457,-357L1677,-360L613,-359Z" fill="#98b0d5" stroke="#98b0d5" stroke-width="1.51"/><path d="M-30,-299L-239,-360L-255,-117Z" fill="#f1ebf4" stroke="#f1ebf4" stroke-width="1.51"/><path d="M223,-352L-239,-360L-30,-299Z" fill="#ede8f2" stroke="#ede8f2" stroke-width="1.51"/><path d="M613,-359L-239,-360L223,-352Z" fill="#e2e0ee" stroke="#e2e0ee" stroke-width="1.51"/><path d="M1677,-360L-239,-360L613,-359Z" fill="#bccee5" stroke="#bccee5" stroke-width="1.51"/><path d="M1434,1187L1731,1203L1690,994Z" fill="#035382" stroke="#035382" stroke-width="1.51"/><path d="M1690,994L1731,1203L1692,753Z" fill="#045586" stroke="#045586" stroke-width="1.51"/><path d="M1729,379L1731,1203L1744,-100Z" fill="#3b7098" stroke="#3b7098" stroke-width="1.51"/><path d="M1239,1210L1731,1203L1434,1187Z" fill="#045585" stroke="#045585" stroke-width="1.51"/><path d="M190,1264L1731,1203L1239,1210Z" fill="#1b6795" stroke="#1b6795" stroke-width="1.51"/><path d="M-270,564L-308,1234L-273,967Z" fill="#96acd1" stroke="#96acd1" stroke-width="1.51"/><path d="M-273,967L-308,1234L-61,997Z" fill="#8ea3c4" stroke="#8ea3c4" stroke-width="1.51"/><path d="M-255,-117L-308,1234L-258,102Z" fill="#bdcfe4" stroke="#bdcfe4" stroke-width="1.51"/></svg>