<svg xmlns="http://www.w3.org/2000/svg" width="800" height="800"><path d="M357,332L180,324L275,453Z" fill="#8db2d4" stroke="#8db2d4" stroke-width="1.51"/><path d="M180,324L174,495L275,453Z" fill="#8eb2d5" stroke="#8eb2d5" stroke-width="1.51"/><path d="M357,332L291,176L180,324Z" fill="#9ab8d8" stroke="#9ab8d8" stroke-width="1.51"/><path d="M357,332L457,170L291,176Z" fill="#94b5d6" stroke="#94b5d6" stroke-width="1.51"/><path d="M473,518L516,286L357,332Z" fill="#70a7ce" stroke="#70a7ce" stroke-width="1.51"/><path d="M275,453L473,518L357,332Z" fill="#74a8cf" stroke="#74a8cf" stroke-width="1.51"/><path d="M451,625L473,518L275,453Z" fill="#5f9fc9" stroke="#5f9fc9" stroke-width="1.51"/><path d="M291,176L170,114L180,324Z" fill="#acbfdc" stroke="#acbfdc" stroke-width="1.51"/><path d="M180,324L-45,454L174,495Z" fill="#9bb8d8" stroke="#9bb8d8" stroke-width="1.51"/><path d="M274,15L170,114L291,176Z" fill="#b5c3df" stroke="#b5c3df" stroke-width="1.51"/><path d="M516,286L457,170L357,332Z" fill="#83add2" stroke="#83add2" stroke-width="1.51"/><path d="M170,114L19,185L180,324Z" fill="#b7c5e0" stroke="#b7c5e0" stroke-width="1.51"/><path d="M19,185L-41,301L180,324Z" fill="#b7c5e0" stroke="#b7c5e0" stroke-width="1.51"/><path d="M279,687L451,625L275,453Z" fill="#639ec9" stroke="#639ec9" stroke-width="1.51"/><path d="M-41,301L-45,454L180,324Z" fill="#acc1dd" stroke="#acc1dd" stroke-width="1.51"/><path d="M174,495L279,687L275,453Z" fill="#77a7ce" stroke="#77a7ce" stroke-width="1.51"/><path d="M-29,621L188,677L174,495Z" fill="#84aad0" stroke="#84aad0" stroke-width="1.51"/><path d="M188,677L279,687L174,495Z" fill="#75a2cc" stroke="#75a2cc" stroke-width="1.51"/><path d="M457,170L274,15L291,176Z" fill="#a5bddb" stroke="#a5bddb" stroke-width="1.51"/><path d="M170,114L-17,-41L19,185Z" fill="#ced0e6" stroke="#ced0e6" stroke-width="1.51"/><path d="M457,170L508,-60L274,15Z" fill="#a4bddb" stroke="#a4bddb" stroke-width="1.51"/><path d="M516,286L610,167L457,170Z" fill="#7fabd1" stroke="#7fabd1" stroke-width="1.51"/><path d="M644,521L639,281L516,286Z" fill="#5d9bc7" stroke="#5d9bc7" stroke-width="1.51"/><path d="M644,521L516,286L473,518Z" fill="#559bc7" stroke="#559bc7" stroke-width="1.51"/><path d="M274,15L181,-12L170,114Z" fill="#c0cae3" stroke="#c0cae3" stroke-width="1.51"/><path d="M639,281L610,167L516,286Z" fill="#72a3cc" stroke="#72a3cc" stroke-width="1.51"/><path d="M-45,454L-29,621L174,495Z" fill="#96b6d6" stroke="#96b6d6" stroke-width="1.51"/><path d="M622,634L644,521L473,518Z" fill="#3890c0" stroke="#3890c0" stroke-width="1.51"/><path d="M188,677L170,778L279,687Z" fill="#6f99c7" stroke="#6f99c7" stroke-width="1.51"/><path d="M279,687L477,815L451,625Z" fill="#4e8ec1" stroke="#4e8ec1" stroke-width="1.51"/><path d="M451,625L622,634L473,518Z" fill="#4091c2" stroke="#4091c2" stroke-width="1.51"/><path d="M-29,621L170,778L188,677Z" fill="#7fa1cc" stroke="#7fa1cc" stroke-width="1.51"/><path d="M-219,309L-157,460L-41,301Z" fill="#bbcce3" stroke="#bbcce3" stroke-width="1.51"/><path d="M-41,301L-157,460L-45,454Z" fill="#b0c6e0" stroke="#b0c6e0" stroke-width="1.51"/><path d="M-45,454L-157,460L-29,621Z" fill="#a1bddb" stroke="#a1bddb" stroke-width="1.51"/><path d="M170,778L297,805L279,687Z" fill="#6793c3" stroke="#6793c3" stroke-width="1.51"/><path d="M477,815L622,634L451,625Z" fill="#3888bd" stroke="#3888bd" stroke-width="1.51"/><path d="M274,15L295,-164L181,-12Z" fill="#c3cde4" stroke="#c3cde4" stroke-width="1.51"/><path d="M610,167L508,-60L457,170Z" fill="#8fb2d4" stroke="#8fb2d4" stroke-width="1.51"/><path d="M-222,187L-219,309L-41,301Z" fill="#c8d2e7" stroke="#c8d2e7" stroke-width="1.51"/><path d="M-222,187L-41,301L19,185Z" fill="#c8d1e6" stroke="#c8d1e6" stroke-width="1.51"/><path d="M181,-12L-17,-41L170,114Z" fill="#ced1e6" stroke="#ced1e6" stroke-width="1.51"/><path d="M-6,-149L-17,-41L181,-12Z" fill="#dcdaeb" stroke="#dcdaeb" stroke-width="1.51"/><path d="M297,805L477,815L279,687Z" fill="#548dbe" stroke="#548dbe" stroke-width="1.51"/><path d="M-157,460L-164,633L-29,621Z" fill="#9cbbda" stroke="#9cbbda" stroke-width="1.51"/><path d="M-29,621L-19,841L170,778Z" fill="#84a0cb" stroke="#84a0cb" stroke-width="1.51"/><path d="M-219,309L-164,633L-157,460Z" fill="#aec6e0" stroke="#aec6e0" stroke-width="1.51"/><path d="M-164,-26L-222,187L19,185Z" fill="#d9daeb" stroke="#d9daeb" stroke-width="1.51"/><path d="M508,-60L295,-164L274,15Z" fill="#b5c8e1" stroke="#b5c8e1" stroke-width="1.51"/><path d="M295,-164L179,-183L181,-12Z" fill="#ccd3e8" stroke="#ccd3e8" stroke-width="1.51"/><path d="M806,629L809,451L644,521Z" fill="#2f81b7" stroke="#2f81b7" stroke-width="1.51"/><path d="M644,521L809,451L639,281Z" fill="#4c8ec1" stroke="#4c8ec1" stroke-width="1.51"/><path d="M639,281L800,126L610,167Z" fill="#739dca" stroke="#739dca" stroke-width="1.51"/><path d="M610,167L651,-43L508,-60Z" fill="#8fb1d4" stroke="#8fb1d4" stroke-width="1.51"/><path d="M806,629L644,521L622,634Z" fill="#2781b9" stroke="#2781b9" stroke-width="1.51"/><path d="M800,126L651,-43L610,167Z" fill="#82a3cd" stroke="#82a3cd" stroke-width="1.51"/><path d="M508,-60L484,-174L295,-164Z" fill="#b0c7e0" stroke="#b0c7e0" stroke-width="1.51"/><path d="M170,778L122,961L297,805Z" fill="#6b8fbb" stroke="#6b8fbb" stroke-width="1.51"/><path d="M297,805L288,983L477,815Z" fill="#5085b3" stroke="#5085b3" stroke-width="1.51"/><path d="M-164,633L-19,841L-29,621Z" fill="#90abd2" stroke="#90abd2" stroke-width="1.51"/><path d="M809,451L832,354L639,281Z" fill="#538dbe" stroke="#538dbe" stroke-width="1.51"/><path d="M666,-163L484,-174L508,-60Z" fill="#9fbddb" stroke="#9fbddb" stroke-width="1.51"/><path d="M295,-164L484,-174L179,-183Z" fill="#c2d0e6" stroke="#c2d0e6" stroke-width="1.51"/><path d="M179,-183L-6,-149L181,-12Z" fill="#d8d9ea" stroke="#d8d9ea" stroke-width="1.51"/><path d="M-17,-41L-164,-26L19,185Z" fill="#dcdaeb" stroke="#dcdaeb" stroke-width="1.51"/><path d="M-6,-149L-164,-26L-17,-41Z" fill="#e6e2ef" stroke="#e6e2ef" stroke-width="1.51"/><path d="M832,354L800,126L639,281Z" fill="#6692c3" stroke="#6692c3" stroke-width="1.51"/><path d="M477,815L676,779L622,634Z" fill="#227db7" stroke="#227db7" stroke-width="1.51"/><path d="M1014,507L976,283L832,354Z" fill="#497da8" stroke="#497da8" stroke-width="1.51"/><path d="M676,779L806,629L622,634Z" fill="#1a78b4" stroke="#1a78b4" stroke-width="1.51"/><path d="M-19,841L122,961L170,778Z" fill="#7995bd" stroke="#7995bd" stroke-width="1.51"/><path d="M477,815L628,1009L676,779Z" fill="#1f75a9" stroke="#1f75a9" stroke-width="1.51"/><path d="M122,961L288,983L297,805Z" fill="#6288b1" stroke="#6288b1" stroke-width="1.51"/><path d="M122,961L-198,995L288,983Z" fill="#748aac" stroke="#748aac" stroke-width="1.51"/><path d="M-19,841L-23,947L122,961Z" fill="#7d94b8" stroke="#7d94b8" stroke-width="1.51"/><path d="M-197,833L-23,947L-19,841Z" fill="#889ec1" stroke="#889ec1" stroke-width="1.51"/><path d="M651,-43L666,-163L508,-60Z" fill="#97b5d7" stroke="#97b5d7" stroke-width="1.51"/><path d="M861,-42L666,-163L651,-43Z" fill="#8fa9d1" stroke="#8fa9d1" stroke-width="1.51"/><path d="M-219,309L-197,833L-164,633Z" fill="#9fbcdb" stroke="#9fbcdb" stroke-width="1.51"/><path d="M-164,633L-197,833L-19,841Z" fill="#91a8ce" stroke="#91a8ce" stroke-width="1.51"/><path d="M288,983L511,994L477,815Z" fill="#417ba8" stroke="#417ba8" stroke-width="1.51"/><path d="M676,779L786,845L806,629Z" fill="#056dac" stroke="#056dac" stroke-width="1.51"/><path d="M-6,-149L-193,-160L-164,-26Z" fill="#ede8f2" stroke="#ede8f2" stroke-width="1.51"/><path d="M-164,-26L-193,-160L-222,187Z" fill="#e8e4f1" stroke="#e8e4f1" stroke-width="1.51"/><path d="M179,-183L-193,-160L-6,-149Z" fill="#e7e3f0" stroke="#e7e3f0" stroke-width="1.51"/><path d="M1014,507L832,354L809,451Z" fill="#417fae" stroke="#417fae" stroke-width="1.51"/><path d="M628,1009L786,845L676,779Z" fill="#0f6aa3" stroke="#0f6aa3" stroke-width="1.51"/><path d="M800,126L861,-42L651,-43Z" fill="#85a0c9" stroke="#85a0c9" stroke-width="1.51"/><path d="M832,354L976,283L800,126Z" fill="#628ab6" stroke="#628ab6" stroke-width="1.51"/><path d="M1014,507L809,451L806,629Z" fill="#2d79ab" stroke="#2d79ab" stroke-width="1.51"/><path d="M948,11L861,-42L800,126Z" fill="#7f97be" stroke="#7f97be" stroke-width="1.51"/><path d="M511,994L628,1009L477,815Z" fill="#2973a1" stroke="#2973a1" stroke-width="1.51"/><path d="M288,983L628,1009L511,994Z" fill="#35719b" stroke="#35719b" stroke-width="1.51"/><path d="M956,839L964,654L806,629Z" fill="#0c679f" stroke="#0c679f" stroke-width="1.51"/><path d="M964,654L1014,507L806,629Z" fill="#1e6fa1" stroke="#1e6fa1" stroke-width="1.51"/><path d="M1013,169L948,11L800,126Z" fill="#758fb5" stroke="#758fb5" stroke-width="1.51"/><path d="M861,-42L852,-207L666,-163Z" fill="#90a6cc" stroke="#90a6cc" stroke-width="1.51"/><path d="M1013,169L800,126L976,283Z" fill="#6889b1" stroke="#6889b1" stroke-width="1.51"/><path d="M1014,507L1013,169L976,283Z" fill="#507aa0" stroke="#507aa0" stroke-width="1.51"/><path d="M-197,833L-198,995L-23,947Z" fill="#899dbc" stroke="#899dbc" stroke-width="1.51"/><path d="M-23,947L-198,995L122,961Z" fill="#7e92b1" stroke="#7e92b1" stroke-width="1.51"/><path d="M288,983L-198,995L628,1009Z" fill="#5d7fa4" stroke="#5d7fa4" stroke-width="1.51"/><path d="M-219,309L-198,995L-197,833Z" fill="#98b0d5" stroke="#98b0d5" stroke-width="1.51"/><path d="M1000,-151L852,-207L861,-42Z" fill="#8a9fc0" stroke="#8a9fc0" stroke-width="1.51"/><path d="M666,-163L852,-207L484,-174Z" fill="#9ab4d7" stroke="#9ab4d7" stroke-width="1.51"/><path d="M484,-174L852,-207L179,-183Z" fill="#a9c3de" stroke="#a9c3de" stroke-width="1.51"/><path d="M628,1009L848,965L786,845Z" fill="#056096" stroke="#056096" stroke-width="1.51"/><path d="M786,845L956,839L806,629Z" fill="#0466a0" stroke="#0466a0" stroke-width="1.51"/><path d="M848,965L956,839L786,845Z" fill="#045e93" stroke="#045e93" stroke-width="1.51"/><path d="M964,654L1011,994L1014,507Z" fill="#085d90" stroke="#085d90" stroke-width="1.51"/><path d="M948,11L1000,-151L861,-42Z" fill="#8397b7" stroke="#8397b7" stroke-width="1.51"/><path d="M1013,169L1000,-151L948,11Z" fill="#798dac" stroke="#798dac" stroke-width="1.51"/><path d="M956,839L1011,994L964,654Z" fill="#045788" stroke="#045788" stroke-width="1.51"/><path d="M848,965L1011,994L956,839Z" fill="#045383" stroke="#045383" stroke-width="1.51"/><path d="M628,1009L1011,994L848,965Z" fill="#045687" stroke="#045687" stroke-width="1.51"/></svg>