<svg xmlns="http://www.w3.org/2000/svg" width="800" height="800"><path d="M357,332L180,324L275,453Z" fill="#fce9d0" stroke="#fce9d0" stroke-width="1.51"/><path d="M180,324L174,495L275,453Z" fill="#fbe0c4" stroke="#fbe0c4" stroke-width="1.51"/><path d="M357,332L291,176L180,324Z" fill="#fee2bc" stroke="#fee2bc" stroke-width="1.51"/><path d="M357,332L457,170L291,176Z" fill="#fee3c3" stroke="#fee3c3" stroke-width="1.51"/><path d="M473,518L516,286L357,332Z" fill="#f3eff0" stroke="#f3eff0" stroke-width="1.51"/><path d="M275,453L473,518L357,332Z" fill="#f5f1ee" stroke="#f5f1ee" stroke-width="1.51"/><path d="M451,625L473,518L275,453Z" fill="#e8e9f1" stroke="#e8e9f1" stroke-width="1.51"/><path d="M291,176L170,114L180,324Z" fill="#ffcf94" stroke="#ffcf94" stroke-width="1.51"/><path d="M180,324L-45,454L174,495Z" fill="#facfa5" stroke="#facfa5" stroke-width="1.51"/><path d="M274,15L170,114L291,176Z" fill="#fdc37f" stroke="#fdc37f" stroke-width="1.51"/><path d="M516,286L457,170L357,332Z" fill="#f7e6d3" stroke="#f7e6d3" stroke-width="1.51"/><path d="M170,114L19,185L180,324Z" fill="#fec279" stroke="#fec279" stroke-width="1.51"/><path d="M19,185L-41,301L180,324Z" fill="#f9bc79" stroke="#f9bc79" stroke-width="1.51"/><path d="M279,687L451,625L275,453Z" fill="#e3d9dc" stroke="#e3d9dc" stroke-width="1.51"/><path d="M-41,301L-45,454L180,324Z" fill="#f8bf89" stroke="#f8bf89" stroke-width="1.51"/><path d="M174,495L279,687L275,453Z" fill="#ecd7c9" stroke="#ecd7c9" stroke-width="1.51"/><path d="M-29,621L188,677L174,495Z" fill="#e6ba9d" stroke="#e6ba9d" stroke-width="1.51"/><path d="M188,677L279,687L174,495Z" fill="#e3c6b9" stroke="#e3c6b9" stroke-width="1.51"/><path d="M457,170L274,15L291,176Z" fill="#ffd09c" stroke="#ffd09c" stroke-width="1.51"/><path d="M170,114L-17,-41L19,185Z" fill="#f1a044" stroke="#f1a044" stroke-width="1.51"/><path d="M457,170L508,-60L274,15Z" fill="#f7c395" stroke="#f7c395" stroke-width="1.51"/><path d="M516,286L610,167L457,170Z" fill="#f0d5bf" stroke="#f0d5bf" stroke-width="1.51"/><path d="M644,521L639,281L516,286Z" fill="#e0dae2" stroke="#e0dae2" stroke-width="1.51"/><path d="M644,521L516,286L473,518Z" fill="#e1e2ee" stroke="#e1e2ee" stroke-width="1.51"/><path d="M274,15L181,-12L170,114Z" fill="#f6b163" stroke="#f6b163" stroke-width="1.51"/><path d="M639,281L610,167L516,286Z" fill="#e6d0c5" stroke="#e6d0c5" stroke-width="1.51"/><path d="M-45,454L-29,621L174,495Z" fill="#ebb68f" stroke="#ebb68f" stroke-width="1.51"/><path d="M622,634L644,521L473,518Z" fill="#cecee5" stroke="#cecee5" stroke-width="1.51"/><path d="M188,677L170,778L279,687Z" fill="#d3b3ae" stroke="#d3b3ae" stroke-width="1.51"/><path d="M279,687L477,815L451,625Z" fill="#ccc7df" stroke="#ccc7df" stroke-width="1.51"/><path d="M451,625L622,634L473,518Z" fill="#d2d2e6" stroke="#d2d2e6" stroke-width="1.51"/><path d="M-29,621L170,778L188,677Z" fill="#d8a794" stroke="#d8a794" stroke-width="1.51"/><path d="M-219,309L-157,460L-41,301Z" fill="#dea276" stroke="#dea276" stroke-width="1.51"/><path d="M-41,301L-157,460L-45,454Z" fill="#e8af84" stroke="#e8af84" stroke-width="1.51"/><path d="M-45,454L-157,460L-29,621Z" fill="#dda481" stroke="#dda481" stroke-width="1.51"/><path d="M170,778L297,805L279,687Z" fill="#caafb4" stroke="#caafb4" stroke-width="1.51"/><path d="M477,815L622,634L451,625Z" fill="#c3bfdc" stroke="#c3bfdc" stroke-width="1.51"/><path d="M274,15L295,-164L181,-12Z" fill="#eba662" stroke="#eba662" stroke-width="1.51"/><path d="M610,167L508,-60L457,170Z" fill="#efc29e" stroke="#efc29e" stroke-width="1.51"/><path d="M-222,187L-219,309L-41,301Z" fill="#d89860" stroke="#d89860" stroke-width="1.51"/><path d="M-222,187L-41,301L19,185Z" fill="#e59e59" stroke="#e59e59" stroke-width="1.51"/><path d="M181,-12L-17,-41L170,114Z" fill="#ef9d41" stroke="#ef9d41" stroke-width="1.51"/><path d="M-6,-149L-17,-41L181,-12Z" fill="#dc8325" stroke="#dc8325" stroke-width="1.51"/><path d="M297,805L477,815L279,687Z" fill="#c4b6cb" stroke="#c4b6cb" stroke-width="1.51"/><path d="M-157,460L-164,633L-29,621Z" fill="#cf957a" stroke="#cf957a" stroke-width="1.51"/><path d="M-29,621L-19,841L170,778Z" fill="#c98e7c" stroke="#c98e7c" stroke-width="1.51"/><path d="M-219,309L-164,633L-157,460Z" fill="#ce997c" stroke="#ce997c" stroke-width="1.51"/><path d="M-164,-26L-222,187L19,185Z" fill="#d98734" stroke="#d98734" stroke-width="1.51"/><path d="M508,-60L295,-164L274,15Z" fill="#eaad7c" stroke="#eaad7c" stroke-width="1.51"/><path d="M295,-164L179,-183L181,-12Z" fill="#df9754" stroke="#df9754" stroke-width="1.51"/><path d="M806,629L809,451L644,521Z" fill="#b5b0d2" stroke="#b5b0d2" stroke-width="1.51"/><path d="M644,521L809,451L639,281Z" fill="#cdc8df" stroke="#cdc8df" stroke-width="1.51"/><path d="M639,281L800,126L610,167Z" fill="#dab7ac" stroke="#dab7ac" stroke-width="1.51"/><path d="M610,167L651,-43L508,-60Z" fill="#e1a987" stroke="#e1a987" stroke-width="1.51"/><path d="M806,629L644,521L622,634Z" fill="#b8b3d6" stroke="#b8b3d6" stroke-width="1.51"/><path d="M800,126L651,-43L610,167Z" fill="#d7a38e" stroke="#d7a38e" stroke-width="1.51"/><path d="M508,-60L484,-174L295,-164Z" fill="#dda47f" stroke="#dda47f" stroke-width="1.51"/><path d="M170,778L122,961L297,805Z" fill="#bc9098" stroke="#bc9098" stroke-width="1.51"/><path d="M297,805L288,983L477,815Z" fill="#b49cbe" stroke="#b49cbe" stroke-width="1.51"/><path d="M-164,633L-19,841L-29,621Z" fill="#c38573" stroke="#c38573" stroke-width="1.51"/><path d="M809,451L832,354L639,281Z" fill="#c5b9ce" stroke="#c5b9ce" stroke-width="1.51"/><path d="M666,-163L484,-174L508,-60Z" fill="#cf967a" stroke="#cf967a" stroke-width="1.51"/><path d="M295,-164L484,-174L179,-183Z" fill="#d69b6c" stroke="#d69b6c" stroke-width="1.51"/><path d="M179,-183L-6,-149L181,-12Z" fill="#db8935" stroke="#db8935" stroke-width="1.51"/><path d="M-17,-41L-164,-26L19,185Z" fill="#dd8221" stroke="#dd8221" stroke-width="1.51"/><path d="M-6,-149L-164,-26L-17,-41Z" fill="#ca6d0e" stroke="#ca6d0e" stroke-width="1.51"/><path d="M832,354L800,126L639,281Z" fill="#cab0b5" stroke="#cab0b5" stroke-width="1.51"/><path d="M477,815L676,779L622,634Z" fill="#afa9ce" stroke="#afa9ce" stroke-width="1.51"/><path d="M1014,507L976,283L832,354Z" fill="#a889bb" stroke="#a889bb" stroke-width="1.51"/><path d="M676,779L806,629L622,634Z" fill="#aaa1cc" stroke="#aaa1cc" stroke-width="1.51"/><path d="M-19,841L122,961L170,778Z" fill="#b97b7b" stroke="#b97b7b" stroke-width="1.51"/><path d="M477,815L628,1009L676,779Z" fill="#9a88bd" stroke="#9a88bd" stroke-width="1.51"/><path d="M122,961L288,983L297,805Z" fill="#b1829c" stroke="#b1829c" stroke-width="1.51"/><path d="M122,961L-198,995L288,983Z" fill="#a35a63" stroke="#a35a63" stroke-width="1.51"/><path d="M-19,841L-23,947L122,961Z" fill="#ab5e65" stroke="#ab5e65" stroke-width="1.51"/><path d="M-197,833L-23,947L-19,841Z" fill="#a3595d" stroke="#a3595d" stroke-width="1.51"/><path d="M651,-43L666,-163L508,-60Z" fill="#ce9379" stroke="#ce9379" stroke-width="1.51"/><path d="M861,-42L666,-163L651,-43Z" fill="#bc7e6e" stroke="#bc7e6e" stroke-width="1.51"/><path d="M-219,309L-197,833L-164,633Z" fill="#bd8874" stroke="#bd8874" stroke-width="1.51"/><path d="M-164,633L-197,833L-19,841Z" fill="#ad6e66" stroke="#ad6e66" stroke-width="1.51"/><path d="M288,983L511,994L477,815Z" fill="#a58bbf" stroke="#a58bbf" stroke-width="1.51"/><path d="M676,779L786,845L806,629Z" fill="#9287ba" stroke="#9287ba" stroke-width="1.51"/><path d="M-6,-149L-193,-160L-164,-26Z" fill="#ba5e07" stroke="#ba5e07" stroke-width="1.51"/><path d="M-164,-26L-193,-160L-222,187Z" fill="#bf670f" stroke="#bf670f" stroke-width="1.51"/><path d="M179,-183L-193,-160L-6,-149Z" fill="#c4690d" stroke="#c4690d" stroke-width="1.51"/><path d="M1014,507L832,354L809,451Z" fill="#aa97c5" stroke="#aa97c5" stroke-width="1.51"/><path d="M628,1009L786,845L676,779Z" fill="#8974b1" stroke="#8974b1" stroke-width="1.51"/><path d="M800,126L861,-42L651,-43Z" fill="#c28472" stroke="#c28472" stroke-width="1.51"/><path d="M832,354L976,283L800,126Z" fill="#b793a6" stroke="#b793a6" stroke-width="1.51"/><path d="M1014,507L809,451L806,629Z" fill="#a190c1" stroke="#a190c1" stroke-width="1.51"/><path d="M948,11L861,-42L800,126Z" fill="#b26d6b" stroke="#b26d6b" stroke-width="1.51"/><path d="M511,994L628,1009L477,815Z" fill="#977db8" stroke="#977db8" stroke-width="1.51"/><path d="M288,983L628,1009L511,994Z" fill="#957bad" stroke="#957bad" stroke-width="1.51"/><path d="M956,839L964,654L806,629Z" fill="#8269ab" stroke="#8269ab" stroke-width="1.51"/><path d="M964,654L1014,507L806,629Z" fill="#9077b5" stroke="#9077b5" stroke-width="1.51"/><path d="M1013,169L948,11L800,126Z" fill="#b06b77" stroke="#b06b77" stroke-width="1.51"/><path d="M861,-42L852,-207L666,-163Z" fill="#a76762" stroke="#a76762" stroke-width="1.51"/><path d="M1013,169L800,126L976,283Z" fill="#b0788d" stroke="#b0788d" stroke-width="1.51"/><path d="M1014,507L1013,169L976,283Z" fill="#9f7a9d" stroke="#9f7a9d" stroke-width="1.51"/><path d="M-197,833L-198,995L-23,947Z" fill="#904153" stroke="#904153" stroke-width="1.51"/><path d="M-23,947L-198,995L122,961Z" fill="#9a4953" stroke="#9a4953" stroke-width="1.51"/><path d="M288,983L-198,995L628,1009Z" fill="#a3738c" stroke="#a3738c" stroke-width="1.51"/><path d="M-219,309L-198,995L-197,833Z" fill="#a87069" stroke="#a87069" stroke-width="1.51"/><path d="M1000,-151L852,-207L861,-42Z" fill="#954856" stroke="#954856" stroke-width="1.51"/><path d="M666,-163L852,-207L484,-174Z" fill="#b57c6f" stroke="#b57c6f" stroke-width="1.51"/><path d="M484,-174L852,-207L179,-183Z" fill="#c9957a" stroke="#c9957a" stroke-width="1.51"/><path d="M628,1009L848,965L786,845Z" fill="#7457a0" stroke="#7457a0" stroke-width="1.51"/><path d="M786,845L956,839L806,629Z" fill="#7f6caa" stroke="#7f6caa" stroke-width="1.51"/><path d="M848,965L956,839L786,845Z" fill="#6a4d9a" stroke="#6a4d9a" stroke-width="1.51"/><path d="M964,654L1011,994L1014,507Z" fill="#725698" stroke="#725698" stroke-width="1.51"/><path d="M948,11L1000,-151L861,-42Z" fill="#9b4958" stroke="#9b4958" stroke-width="1.51"/><path d="M1013,169L1000,-151L948,11Z" fill="#9c4d54" stroke="#9c4d54" stroke-width="1.51"/><path d="M956,839L1011,994L964,654Z" fill="#61418d" stroke="#61418d" stroke-width="1.51"/><path d="M848,965L1011,994L956,839Z" fill="#552989" stroke="#552989" stroke-width="1.51"/><path d="M628,1009L1011,994L848,965Z" fill="#5f3f8a" stroke="#5f3f8a" stroke-width="1.51"/></svg>