<svg xmlns="http://www.w3.org/2000/svg" width="800" height="800"><path d="M357,332L180,324L275,453Z" fill="#92d4bd" stroke="#92d4bd" stroke-width="1.51"/><path d="M180,324L174,495L275,453Z" fill="#93d3bf" stroke="#93d3bf" stroke-width="1.51"/><path d="M357,332L291,176L180,324Z" fill="#9dd8b9" stroke="#9dd8b9" stroke-width="1.51"/><path d="M357,332L457,170L291,176Z" fill="#97d6bc" stroke="#97d6bc" stroke-width="1.51"/><path d="M473,518L516,286L357,332Z" fill="#79c9c5" stroke="#79c9c5" stroke-width="1.51"/><path d="M275,453L473,518L357,332Z" fill="#7ccbc4" stroke="#7ccbc4" stroke-width="1.51"/><path d="M451,625L473,518L275,453Z" fill="#6cc2ca" stroke="#6cc2ca" stroke-width="1.51"/><path d="M291,176L170,114L180,324Z" fill="#addfb7" stroke="#addfb7" stroke-width="1.51"/><path d="M180,324L-45,454L174,495Z" fill="#a0d8c4" stroke="#a0d8c4" stroke-width="1.51"/><path d="M274,15L170,114L291,176Z" fill="#b5e2bb" stroke="#b5e2bb" stroke-width="1.51"/><path d="M516,286L457,170L357,332Z" fill="#8bcfc0" stroke="#8bcfc0" stroke-width="1.51"/><path d="M170,114L19,185L180,324Z" fill="#b6e3bb" stroke="#b6e3bb" stroke-width="1.51"/><path d="M19,185L-41,301L180,324Z" fill="#b6e3bf" stroke="#b6e3bf" stroke-width="1.51"/><path d="M279,687L451,625L275,453Z" fill="#71c0c7" stroke="#71c0c7" stroke-width="1.51"/><path d="M-41,301L-45,454L180,324Z" fill="#addec5" stroke="#addec5" stroke-width="1.51"/><path d="M174,495L279,687L275,453Z" fill="#83c9c4" stroke="#83c9c4" stroke-width="1.51"/><path d="M-29,621L188,677L174,495Z" fill="#8fc9c8" stroke="#8fc9c8" stroke-width="1.51"/><path d="M188,677L279,687L174,495Z" fill="#81c2c3" stroke="#81c2c3" stroke-width="1.51"/><path d="M457,170L274,15L291,176Z" fill="#a7dcc0" stroke="#a7dcc0" stroke-width="1.51"/><path d="M170,114L-17,-41L19,185Z" fill="#caeac4" stroke="#caeac4" stroke-width="1.51"/><path d="M457,170L508,-60L274,15Z" fill="#a6dbc7" stroke="#a6dbc7" stroke-width="1.51"/><path d="M516,286L610,167L457,170Z" fill="#8accc4" stroke="#8accc4" stroke-width="1.51"/><path d="M644,521L639,281L516,286Z" fill="#6bbec8" stroke="#6bbec8" stroke-width="1.51"/><path d="M644,521L516,286L473,518Z" fill="#65becd" stroke="#65becd" stroke-width="1.51"/><path d="M274,15L181,-12L170,114Z" fill="#bee6bf" stroke="#bee6bf" stroke-width="1.51"/><path d="M639,281L610,167L516,286Z" fill="#7fc5c4" stroke="#7fc5c4" stroke-width="1.51"/><path d="M-45,454L-29,621L174,495Z" fill="#9dd3cc" stroke="#9dd3cc" stroke-width="1.51"/><path d="M622,634L644,521L473,518Z" fill="#4fb2d2" stroke="#4fb2d2" stroke-width="1.51"/><path d="M188,677L170,778L279,687Z" fill="#7ab7bd" stroke="#7ab7bd" stroke-width="1.51"/><path d="M279,687L477,815L451,625Z" fill="#5caec3" stroke="#5caec3" stroke-width="1.51"/><path d="M451,625L622,634L473,518Z" fill="#55b4cf" stroke="#55b4cf" stroke-width="1.51"/><path d="M-29,621L170,778L188,677Z" fill="#88bdc3" stroke="#88bdc3" stroke-width="1.51"/><path d="M-219,309L-157,460L-41,301Z" fill="#b8e3cf" stroke="#b8e3cf" stroke-width="1.51"/><path d="M-41,301L-157,460L-45,454Z" fill="#aedfce" stroke="#aedfce" stroke-width="1.51"/><path d="M-45,454L-157,460L-29,621Z" fill="#a4d6d3" stroke="#a4d6d3" stroke-width="1.51"/><path d="M170,778L297,805L279,687Z" fill="#73b0ba" stroke="#73b0ba" stroke-width="1.51"/><path d="M477,815L622,634L451,625Z" fill="#4ca8ca" stroke="#4ca8ca" stroke-width="1.51"/><path d="M274,15L295,-164L181,-12Z" fill="#bfe6c5" stroke="#bfe6c5" stroke-width="1.51"/><path d="M610,167L508,-60L457,170Z" fill="#97d1c9" stroke="#97d1c9" stroke-width="1.51"/><path d="M-222,187L-219,309L-41,301Z" fill="#c4e8cd" stroke="#c4e8cd" stroke-width="1.51"/><path d="M-222,187L-41,301L19,185Z" fill="#c4e8c7" stroke="#c4e8c7" stroke-width="1.51"/><path d="M181,-12L-17,-41L170,114Z" fill="#caeac5" stroke="#caeac5" stroke-width="1.51"/><path d="M-6,-149L-17,-41L181,-12Z" fill="#d5efce" stroke="#d5efce" stroke-width="1.51"/><path d="M297,805L477,815L279,687Z" fill="#61aabe" stroke="#61aabe" stroke-width="1.51"/><path d="M-157,460L-164,633L-29,621Z" fill="#a1d3d8" stroke="#a1d3d8" stroke-width="1.51"/><path d="M-29,621L-19,841L170,778Z" fill="#8bb9c3" stroke="#8bb9c3" stroke-width="1.51"/><path d="M-219,309L-164,633L-157,460Z" fill="#afdcd7" stroke="#afdcd7" stroke-width="1.51"/><path d="M-164,-26L-222,187L19,185Z" fill="#d2eece" stroke="#d2eece" stroke-width="1.51"/><path d="M508,-60L295,-164L274,15Z" fill="#b3e1cb" stroke="#b3e1cb" stroke-width="1.51"/><path d="M295,-164L179,-183L181,-12Z" fill="#c7e9c9" stroke="#c7e9c9" stroke-width="1.51"/><path d="M806,629L809,451L644,521Z" fill="#44a0c6" stroke="#44a0c6" stroke-width="1.51"/><path d="M644,521L809,451L639,281Z" fill="#5bafc5" stroke="#5bafc5" stroke-width="1.51"/><path d="M639,281L800,126L610,167Z" fill="#7fbbc0" stroke="#7fbbc0" stroke-width="1.51"/><path d="M610,167L651,-43L508,-60Z" fill="#97cdce" stroke="#97cdce" stroke-width="1.51"/><path d="M806,629L644,521L622,634Z" fill="#40a1ca" stroke="#40a1ca" stroke-width="1.51"/><path d="M800,126L651,-43L610,167Z" fill="#8bbfc4" stroke="#8bbfc4" stroke-width="1.51"/><path d="M508,-60L484,-174L295,-164Z" fill="#b0ded3" stroke="#b0ded3" stroke-width="1.51"/><path d="M170,778L122,961L297,805Z" fill="#76a8b6" stroke="#76a8b6" stroke-width="1.51"/><path d="M297,805L288,983L477,815Z" fill="#5d9fb9" stroke="#5d9fb9" stroke-width="1.51"/><path d="M-164,633L-19,841L-29,621Z" fill="#94c2ce" stroke="#94c2ce" stroke-width="1.51"/><path d="M809,451L832,354L639,281Z" fill="#60abbf" stroke="#60abbf" stroke-width="1.51"/><path d="M666,-163L484,-174L508,-60Z" fill="#a4d5d9" stroke="#a4d5d9" stroke-width="1.51"/><path d="M295,-164L484,-174L179,-183Z" fill="#bfe6d0" stroke="#bfe6d0" stroke-width="1.51"/><path d="M179,-183L-6,-149L181,-12Z" fill="#d1eece" stroke="#d1eece" stroke-width="1.51"/><path d="M-17,-41L-164,-26L19,185Z" fill="#d5efce" stroke="#d5efce" stroke-width="1.51"/><path d="M-6,-149L-164,-26L-17,-41Z" fill="#dcf1d6" stroke="#dcf1d6" stroke-width="1.51"/><path d="M832,354L800,126L639,281Z" fill="#72b0ba" stroke="#72b0ba" stroke-width="1.51"/><path d="M477,815L676,779L622,634Z" fill="#3b9cc6" stroke="#3b9cc6" stroke-width="1.51"/><path d="M1014,507L976,283L832,354Z" fill="#5594b3" stroke="#5594b3" stroke-width="1.51"/><path d="M676,779L806,629L622,634Z" fill="#3696c3" stroke="#3696c3" stroke-width="1.51"/><path d="M-19,841L122,961L170,778Z" fill="#81abbb" stroke="#81abbb" stroke-width="1.51"/><path d="M477,815L628,1009L676,779Z" fill="#348ec0" stroke="#348ec0" stroke-width="1.51"/><path d="M122,961L288,983L297,805Z" fill="#6e9eb0" stroke="#6e9eb0" stroke-width="1.51"/><path d="M122,961L-198,995L288,983Z" fill="#7e9caf" stroke="#7e9caf" stroke-width="1.51"/><path d="M-19,841L-23,947L122,961Z" fill="#83a6bb" stroke="#83a6bb" stroke-width="1.51"/><path d="M-197,833L-23,947L-19,841Z" fill="#8badc4" stroke="#8badc4" stroke-width="1.51"/><path d="M651,-43L666,-163L508,-60Z" fill="#9ccdd4" stroke="#9ccdd4" stroke-width="1.51"/><path d="M861,-42L666,-163L651,-43Z" fill="#93bfcc" stroke="#93bfcc" stroke-width="1.51"/><path d="M-219,309L-197,833L-164,633Z" fill="#a5d2db" stroke="#a5d2db" stroke-width="1.51"/><path d="M-164,633L-197,833L-19,841Z" fill="#93bbcd" stroke="#93bbcd" stroke-width="1.51"/><path d="M288,983L511,994L477,815Z" fill="#4e93b6" stroke="#4e93b6" stroke-width="1.51"/><path d="M676,779L786,845L806,629Z" fill="#2988bc" stroke="#2988bc" stroke-width="1.51"/><path d="M-6,-149L-193,-160L-164,-26Z" fill="#e1f3dc" stroke="#e1f3dc" stroke-width="1.51"/><path d="M-164,-26L-193,-160L-222,187Z" fill="#e0f3d9" stroke="#e0f3d9" stroke-width="1.51"/><path d="M179,-183L-193,-160L-6,-149Z" fill="#def2d8" stroke="#def2d8" stroke-width="1.51"/><path d="M1014,507L832,354L809,451Z" fill="#4e98bb" stroke="#4e98bb" stroke-width="1.51"/><path d="M628,1009L786,845L676,779Z" fill="#2681b9" stroke="#2681b9" stroke-width="1.51"/><path d="M800,126L861,-42L651,-43Z" fill="#8bb7c4" stroke="#8bb7c4" stroke-width="1.51"/><path d="M832,354L976,283L800,126Z" fill="#6da3b5" stroke="#6da3b5" stroke-width="1.51"/><path d="M1014,507L809,451L806,629Z" fill="#3f93c0" stroke="#3f93c0" stroke-width="1.51"/><path d="M948,11L861,-42L800,126Z" fill="#85abbe" stroke="#85abbe" stroke-width="1.51"/><path d="M511,994L628,1009L477,815Z" fill="#3b8aba" stroke="#3b8aba" stroke-width="1.51"/><path d="M288,983L628,1009L511,994Z" fill="#4587b0" stroke="#4587b0" stroke-width="1.51"/><path d="M956,839L964,654L806,629Z" fill="#237db7" stroke="#237db7" stroke-width="1.51"/><path d="M964,654L1014,507L806,629Z" fill="#3186ba" stroke="#3186ba" stroke-width="1.51"/><path d="M1013,169L948,11L800,126Z" fill="#7da3b6" stroke="#7da3b6" stroke-width="1.51"/><path d="M861,-42L852,-207L666,-163Z" fill="#93b8cc" stroke="#93b8cc" stroke-width="1.51"/><path d="M1013,169L800,126L976,283Z" fill="#739eb0" stroke="#739eb0" stroke-width="1.51"/><path d="M1014,507L1013,169L976,283Z" fill="#5e90a9" stroke="#5e90a9" stroke-width="1.51"/><path d="M-197,833L-198,995L-23,947Z" fill="#8da8c4" stroke="#8da8c4" stroke-width="1.51"/><path d="M-23,947L-198,995L122,961Z" fill="#84a1b7" stroke="#84a1b7" stroke-width="1.51"/><path d="M288,983L-198,995L628,1009Z" fill="#6a94a6" stroke="#6a94a6" stroke-width="1.51"/><path d="M-219,309L-198,995L-197,833Z" fill="#9cc3d5" stroke="#9cc3d5" stroke-width="1.51"/><path d="M1000,-151L852,-207L861,-42Z" fill="#8dabc6" stroke="#8dabc6" stroke-width="1.51"/><path d="M666,-163L852,-207L484,-174Z" fill="#9ec8d6" stroke="#9ec8d6" stroke-width="1.51"/><path d="M484,-174L852,-207L179,-183Z" fill="#addada" stroke="#addada" stroke-width="1.51"/><path d="M628,1009L848,965L786,845Z" fill="#1d73af" stroke="#1d73af" stroke-width="1.51"/><path d="M786,845L956,839L806,629Z" fill="#207cb6" stroke="#207cb6" stroke-width="1.51"/><path d="M848,965L956,839L786,845Z" fill="#136eaf" stroke="#136eaf" stroke-width="1.51"/><path d="M964,654L1011,994L1014,507Z" fill="#2170aa" stroke="#2170aa" stroke-width="1.51"/><path d="M948,11L1000,-151L861,-42Z" fill="#87a5be" stroke="#87a5be" stroke-width="1.51"/><path d="M1013,169L1000,-151L948,11Z" fill="#809db2" stroke="#809db2" stroke-width="1.51"/><path d="M956,839L1011,994L964,654Z" fill="#1567a6" stroke="#1567a6" stroke-width="1.51"/><path d="M848,965L1011,994L956,839Z" fill="#0960a4" stroke="#0960a4" stroke-width="1.51"/><path d="M628,1009L1011,994L848,965Z" fill="#1565a5" stroke="#1565a5" stroke-width="1.51"/></svg>