<svg xmlns="http://www.w3.org/2000/svg" width="800" height="800"><path d="M357,332L180,324L275,453Z" fill="#ffeca0" stroke="#ffeca0" stroke-width="1.51"/><path d="M180,324L174,495L275,453Z" fill="#fee498" stroke="#fee498" stroke-width="1.51"/><path d="M357,332L291,176L180,324Z" fill="#fee38f" stroke="#fee38f" stroke-width="1.51"/><path d="M357,332L457,170L291,176Z" fill="#ffe498" stroke="#ffe498" stroke-width="1.51"/><path d="M473,518L516,286L357,332Z" fill="#fbfbb4" stroke="#fbfbb4" stroke-width="1.51"/><path d="M275,453L473,518L357,332Z" fill="#fcfab4" stroke="#fcfab4" stroke-width="1.51"/><path d="M451,625L473,518L275,453Z" fill="#f3faac" stroke="#f3faac" stroke-width="1.51"/><path d="M291,176L170,114L180,324Z" fill="#fecb79" stroke="#fecb79" stroke-width="1.51"/><path d="M180,324L-45,454L174,495Z" fill="#ffcf88" stroke="#ffcf88" stroke-width="1.51"/><path d="M274,15L170,114L291,176Z" fill="#febc6f" stroke="#febc6f" stroke-width="1.51"/><path d="M516,286L457,170L357,332Z" fill="#fbee9e" stroke="#fbee9e" stroke-width="1.51"/><path d="M170,114L19,185L180,324Z" fill="#febb6c" stroke="#febb6c" stroke-width="1.51"/><path d="M19,185L-41,301L180,324Z" fill="#feb66d" stroke="#feb66d" stroke-width="1.51"/><path d="M279,687L451,625L275,453Z" fill="#e7eea1" stroke="#e7eea1" stroke-width="1.51"/><path d="M-41,301L-45,454L180,324Z" fill="#ffbc7b" stroke="#ffbc7b" stroke-width="1.51"/><path d="M174,495L279,687L275,453Z" fill="#f1e68e" stroke="#f1e68e" stroke-width="1.51"/><path d="M-29,621L188,677L174,495Z" fill="#e8c97d" stroke="#e8c97d" stroke-width="1.51"/><path d="M188,677L279,687L174,495Z" fill="#e2da8e" stroke="#e2da8e" stroke-width="1.51"/><path d="M457,170L274,15L291,176Z" fill="#ffcd83" stroke="#ffcd83" stroke-width="1.51"/><path d="M170,114L-17,-41L19,185Z" fill="#fa9253" stroke="#fa9253" stroke-width="1.51"/><path d="M457,170L508,-60L274,15Z" fill="#ffc283" stroke="#ffc283" stroke-width="1.51"/><path d="M516,286L610,167L457,170Z" fill="#f4e189" stroke="#f4e189" stroke-width="1.51"/><path d="M644,521L639,281L516,286Z" fill="#e5f0a7" stroke="#e5f0a7" stroke-width="1.51"/><path d="M644,521L516,286L473,518Z" fill="#edf8a6" stroke="#edf8a6" stroke-width="1.51"/><path d="M274,15L181,-12L170,114Z" fill="#fca862" stroke="#fca862" stroke-width="1.51"/><path d="M639,281L610,167L516,286Z" fill="#e8e290" stroke="#e8e290" stroke-width="1.51"/><path d="M-45,454L-29,621L174,495Z" fill="#f5bd72" stroke="#f5bd72" stroke-width="1.51"/><path d="M622,634L644,521L473,518Z" fill="#d8ef9b" stroke="#d8ef9b" stroke-width="1.51"/><path d="M188,677L170,778L279,687Z" fill="#cfd18f" stroke="#cfd18f" stroke-width="1.51"/><path d="M279,687L477,815L451,625Z" fill="#cdeab1" stroke="#cdeab1" stroke-width="1.51"/><path d="M451,625L622,634L473,518Z" fill="#dcf19e" stroke="#dcf19e" stroke-width="1.51"/><path d="M-29,621L170,778L188,677Z" fill="#d6c080" stroke="#d6c080" stroke-width="1.51"/><path d="M-219,309L-157,460L-41,301Z" fill="#ef9f7d" stroke="#ef9f7d" stroke-width="1.51"/><path d="M-41,301L-157,460L-45,454Z" fill="#f7ad82" stroke="#f7ad82" stroke-width="1.51"/><path d="M-45,454L-157,460L-29,621Z" fill="#eeaa73" stroke="#eeaa73" stroke-width="1.51"/><path d="M170,778L297,805L279,687Z" fill="#c5d396" stroke="#c5d396" stroke-width="1.51"/><path d="M477,815L622,634L451,625Z" fill="#c6e7a1" stroke="#c6e7a1" stroke-width="1.51"/><path d="M274,15L295,-164L181,-12Z" fill="#f69e66" stroke="#f69e66" stroke-width="1.51"/><path d="M610,167L508,-60L457,170Z" fill="#f5ca79" stroke="#f5ca79" stroke-width="1.51"/><path d="M-222,187L-219,309L-41,301Z" fill="#e8916b" stroke="#e8916b" stroke-width="1.51"/><path d="M-222,187L-41,301L19,185Z" fill="#f39564" stroke="#f39564" stroke-width="1.51"/><path d="M181,-12L-17,-41L170,114Z" fill="#f99052" stroke="#f99052" stroke-width="1.51"/><path d="M-6,-149L-17,-41L181,-12Z" fill="#ef714c" stroke="#ef714c" stroke-width="1.51"/><path d="M297,805L477,815L279,687Z" fill="#c0dfa9" stroke="#c0dfa9" stroke-width="1.51"/><path d="M-157,460L-164,633L-29,621Z" fill="#e0a073" stroke="#e0a073" stroke-width="1.51"/><path d="M-29,621L-19,841L170,778Z" fill="#ccac78" stroke="#ccac78" stroke-width="1.51"/><path d="M-219,309L-164,633L-157,460Z" fill="#e29c79" stroke="#e29c79" stroke-width="1.51"/><path d="M-164,-26L-222,187L19,185Z" fill="#eb7956" stroke="#eb7956" stroke-width="1.51"/><path d="M508,-60L295,-164L274,15Z" fill="#f8a97a" stroke="#f8a97a" stroke-width="1.51"/><path d="M295,-164L179,-183L181,-12Z" fill="#ee8e65" stroke="#ee8e65" stroke-width="1.51"/><path d="M806,629L809,451L644,521Z" fill="#b7e09f" stroke="#b7e09f" stroke-width="1.51"/><path d="M644,521L809,451L639,281Z" fill="#ceebaf" stroke="#ceebaf" stroke-width="1.51"/><path d="M639,281L800,126L610,167Z" fill="#d6d08c" stroke="#d6d08c" stroke-width="1.51"/><path d="M610,167L651,-43L508,-60Z" fill="#eab571" stroke="#eab571" stroke-width="1.51"/><path d="M806,629L644,521L622,634Z" fill="#b7e1a1" stroke="#b7e1a1" stroke-width="1.51"/><path d="M800,126L651,-43L610,167Z" fill="#d8bb7d" stroke="#d8bb7d" stroke-width="1.51"/><path d="M508,-60L484,-174L295,-164Z" fill="#efa481" stroke="#efa481" stroke-width="1.51"/><path d="M170,778L122,961L297,805Z" fill="#b9bb93" stroke="#b9bb93" stroke-width="1.51"/><path d="M297,805L288,983L477,815Z" fill="#b2ccb0" stroke="#b2ccb0" stroke-width="1.51"/><path d="M-164,633L-19,841L-29,621Z" fill="#ce9d75" stroke="#ce9d75" stroke-width="1.51"/><path d="M809,451L832,354L639,281Z" fill="#c2e1ab" stroke="#c2e1ab" stroke-width="1.51"/><path d="M666,-163L484,-174L508,-60Z" fill="#e2a073" stroke="#e2a073" stroke-width="1.51"/><path d="M295,-164L484,-174L179,-183Z" fill="#e79574" stroke="#e79574" stroke-width="1.51"/><path d="M179,-183L-6,-149L181,-12Z" fill="#ec7a56" stroke="#ec7a56" stroke-width="1.51"/><path d="M-17,-41L-164,-26L19,185Z" fill="#f0704a" stroke="#f0704a" stroke-width="1.51"/><path d="M-6,-149L-164,-26L-17,-41Z" fill="#e5584a" stroke="#e5584a" stroke-width="1.51"/><path d="M832,354L800,126L639,281Z" fill="#c5d497" stroke="#c5d497" stroke-width="1.51"/><path d="M477,815L676,779L622,634Z" fill="#acdca1" stroke="#acdca1" stroke-width="1.51"/><path d="M1014,507L976,283L832,354Z" fill="#a9bfbc" stroke="#a9bfbc" stroke-width="1.51"/><path d="M676,779L806,629L622,634Z" fill="#a1d8a4" stroke="#a1d8a4" stroke-width="1.51"/><path d="M-19,841L122,961L170,778Z" fill="#bba485" stroke="#bba485" stroke-width="1.51"/><path d="M477,815L628,1009L676,779Z" fill="#97c7a9" stroke="#97c7a9" stroke-width="1.51"/><path d="M122,961L288,983L297,805Z" fill="#b0b2a1" stroke="#b0b2a1" stroke-width="1.51"/><path d="M122,961L-198,995L288,983Z" fill="#b48487" stroke="#b48487" stroke-width="1.51"/><path d="M-19,841L-23,947L122,961Z" fill="#b58983" stroke="#b58983" stroke-width="1.51"/><path d="M-197,833L-23,947L-19,841Z" fill="#b1827d" stroke="#b1827d" stroke-width="1.51"/><path d="M651,-43L666,-163L508,-60Z" fill="#dca273" stroke="#dca273" stroke-width="1.51"/><path d="M861,-42L666,-163L651,-43Z" fill="#c79976" stroke="#c79976" stroke-width="1.51"/><path d="M-219,309L-197,833L-164,633Z" fill="#cf9472" stroke="#cf9472" stroke-width="1.51"/><path d="M-164,633L-197,833L-19,841Z" fill="#bb8f78" stroke="#bb8f78" stroke-width="1.51"/><path d="M288,983L511,994L477,815Z" fill="#a7c2bc" stroke="#a7c2bc" stroke-width="1.51"/><path d="M676,779L786,845L806,629Z" fill="#82cba5" stroke="#82cba5" stroke-width="1.51"/><path d="M-6,-149L-193,-160L-164,-26Z" fill="#da464e" stroke="#da464e" stroke-width="1.51"/><path d="M-164,-26L-193,-160L-222,187Z" fill="#d94f48" stroke="#d94f48" stroke-width="1.51"/><path d="M179,-183L-193,-160L-6,-149Z" fill="#df5249" stroke="#df5249" stroke-width="1.51"/><path d="M1014,507L832,354L809,451Z" fill="#abccb5" stroke="#abccb5" stroke-width="1.51"/><path d="M628,1009L786,845L676,779Z" fill="#7bbcac" stroke="#7bbcac" stroke-width="1.51"/><path d="M800,126L861,-42L651,-43Z" fill="#c7a475" stroke="#c7a475" stroke-width="1.51"/><path d="M832,354L976,283L800,126Z" fill="#b4c09e" stroke="#b4c09e" stroke-width="1.51"/><path d="M1014,507L809,451L806,629Z" fill="#a5caa8" stroke="#a5caa8" stroke-width="1.51"/><path d="M948,11L861,-42L800,126Z" fill="#ba967f" stroke="#ba967f" stroke-width="1.51"/><path d="M511,994L628,1009L477,815Z" fill="#9dbbad" stroke="#9dbbad" stroke-width="1.51"/><path d="M288,983L628,1009L511,994Z" fill="#a7b1b0" stroke="#a7b1b0" stroke-width="1.51"/><path d="M956,839L964,654L806,629Z" fill="#75b4af" stroke="#75b4af" stroke-width="1.51"/><path d="M964,654L1014,507L806,629Z" fill="#8fb9af" stroke="#8fb9af" stroke-width="1.51"/><path d="M1013,169L948,11L800,126Z" fill="#b4998c" stroke="#b4998c" stroke-width="1.51"/><path d="M861,-42L852,-207L666,-163Z" fill="#b48b78" stroke="#b48b78" stroke-width="1.51"/><path d="M1013,169L800,126L976,283Z" fill="#b0a79b" stroke="#b0a79b" stroke-width="1.51"/><path d="M1014,507L1013,169L976,283Z" fill="#b0aaab" stroke="#b0aaab" stroke-width="1.51"/><path d="M-197,833L-198,995L-23,947Z" fill="#a46e84" stroke="#a46e84" stroke-width="1.51"/><path d="M-23,947L-198,995L122,961Z" fill="#b0737f" stroke="#b0737f" stroke-width="1.51"/><path d="M288,983L-198,995L628,1009Z" fill="#b1a19d" stroke="#b1a19d" stroke-width="1.51"/><path d="M-219,309L-198,995L-197,833Z" fill="#b68874" stroke="#b68874" stroke-width="1.51"/><path d="M1000,-151L852,-207L861,-42Z" fill="#a77482" stroke="#a77482" stroke-width="1.51"/><path d="M666,-163L852,-207L484,-174Z" fill="#c39076" stroke="#c39076" stroke-width="1.51"/><path d="M484,-174L852,-207L179,-183Z" fill="#dd9974" stroke="#dd9974" stroke-width="1.51"/><path d="M628,1009L848,965L786,845Z" fill="#64a9b2" stroke="#64a9b2" stroke-width="1.51"/><path d="M786,845L956,839L806,629Z" fill="#6abbaa" stroke="#6abbaa" stroke-width="1.51"/><path d="M848,965L956,839L786,845Z" fill="#52a3b2" stroke="#52a3b2" stroke-width="1.51"/><path d="M964,654L1011,994L1014,507Z" fill="#76a0ac" stroke="#76a0ac" stroke-width="1.51"/><path d="M948,11L1000,-151L861,-42Z" fill="#ac7783" stroke="#ac7783" stroke-width="1.51"/><path d="M1013,169L1000,-151L948,11Z" fill="#b4757e" stroke="#b4757e" stroke-width="1.51"/><path d="M956,839L1011,994L964,654Z" fill="#5797b0" stroke="#5797b0" stroke-width="1.51"/><path d="M848,965L1011,994L956,839Z" fill="#3489bd" stroke="#3489bd" stroke-width="1.51"/><path d="M628,1009L1011,994L848,965Z" fill="#5995af" stroke="#5995af" stroke-width="1.51"/></svg>